<?xml version="1.0" encoding="utf-8" ?>
<svg baseProfile="full" height="317" version="1.1" width="542" xmlns="http://www.w3.org/2000/svg" xmlns:ev="http://www.w3.org/2001/xml-events" xmlns:xlink="http://www.w3.org/1999/xlink"><defs /><path d="M 242,74 L 241,75 L 236,75 L 235,76 L 231,76 L 230,77 L 228,77 L 227,78 L 224,78 L 223,79 L 222,79 L 221,80 L 219,80 L 218,81 L 216,81 L 215,82 L 214,82 L 213,83 L 212,83 L 211,84 L 210,84 L 209,85 L 208,85 L 207,86 L 206,86 L 205,87 L 204,87 L 202,89 L 201,89 L 199,91 L 198,91 L 196,93 L 195,93 L 191,97 L 190,97 L 180,107 L 180,108 L 177,111 L 177,112 L 175,114 L 175,115 L 173,117 L 173,118 L 171,120 L 171,121 L 170,122 L 170,123 L 169,124 L 169,126 L 168,127 L 168,128 L 167,129 L 167,131 L 166,132 L 166,135 L 165,136 L 165,140 L 164,141 L 164,152 L 165,153 L 165,157 L 166,158 L 166,161 L 167,162 L 166,163 L 168,165 L 168,166 L 169,167 L 169,168 L 170,169 L 170,170 L 171,171 L 171,172 L 173,174 L 173,176 L 174,177 L 174,178 L 175,179 L 175,180 L 176,181 L 176,182 L 177,183 L 177,184 L 179,186 L 179,187 L 183,191 L 183,192 L 187,196 L 188,196 L 192,200 L 193,200 L 195,202 L 196,202 L 197,203 L 198,203 L 199,204 L 200,204 L 201,205 L 202,205 L 203,206 L 204,206 L 205,207 L 207,207 L 208,208 L 210,208 L 211,209 L 213,209 L 214,210 L 217,210 L 218,211 L 225,211 L 226,212 L 239,212 L 240,211 L 246,211 L 247,210 L 251,210 L 252,209 L 255,209 L 256,208 L 258,208 L 259,207 L 261,207 L 262,206 L 263,206 L 264,205 L 266,205 L 267,204 L 268,204 L 269,203 L 270,203 L 271,202 L 272,202 L 273,201 L 274,201 L 275,200 L 276,200 L 277,199 L 278,199 L 280,197 L 281,197 L 283,195 L 284,195 L 286,193 L 287,193 L 292,188 L 293,188 L 301,180 L 301,179 L 305,175 L 305,174 L 308,171 L 308,170 L 310,168 L 310,167 L 311,166 L 311,165 L 312,164 L 312,163 L 313,162 L 313,161 L 314,160 L 314,159 L 315,158 L 315,156 L 316,155 L 316,153 L 317,152 L 317,150 L 318,149 L 318,145 L 319,144 L 319,129 L 318,128 L 318,125 L 317,124 L 317,121 L 316,120 L 316,119 L 315,118 L 315,117 L 314,116 L 314,115 L 313,114 L 313,113 L 312,112 L 312,110 L 311,109 L 311,107 L 310,106 L 310,105 L 309,104 L 309,103 L 308,102 L 308,101 L 307,100 L 307,99 L 306,98 L 306,97 L 302,93 L 302,92 L 297,87 L 296,87 L 294,85 L 293,85 L 291,83 L 290,83 L 289,82 L 288,82 L 286,80 L 284,80 L 283,79 L 282,79 L 281,78 L 279,78 L 278,77 L 276,77 L 275,76 L 272,76 L 271,75 L 267,75 L 266,74 Z" fill="black" /><path d="M 155,58 L 154,59 L 151,59 L 150,60 L 147,60 L 146,61 L 144,61 L 143,62 L 142,62 L 141,63 L 139,63 L 138,64 L 137,64 L 136,65 L 134,65 L 133,66 L 132,66 L 130,68 L 129,68 L 128,69 L 127,69 L 126,70 L 125,70 L 123,72 L 122,72 L 120,74 L 119,74 L 116,77 L 115,77 L 102,90 L 102,91 L 99,94 L 99,95 L 97,97 L 97,98 L 95,100 L 95,101 L 93,103 L 93,104 L 92,105 L 92,106 L 91,107 L 91,108 L 90,109 L 90,110 L 89,111 L 89,113 L 88,114 L 88,115 L 87,116 L 87,118 L 86,119 L 86,121 L 85,122 L 85,124 L 84,125 L 84,129 L 83,130 L 83,135 L 82,136 L 82,146 L 81,147 L 81,150 L 82,151 L 82,162 L 83,163 L 83,167 L 84,168 L 84,171 L 85,172 L 85,175 L 86,176 L 86,178 L 87,179 L 87,181 L 88,182 L 88,183 L 89,184 L 89,185 L 90,186 L 90,188 L 91,189 L 91,190 L 92,191 L 92,192 L 94,194 L 94,195 L 95,196 L 95,197 L 97,199 L 97,200 L 99,202 L 99,203 L 102,206 L 102,207 L 103,208 L 103,209 L 98,214 L 98,215 L 94,219 L 97,219 L 98,220 L 102,220 L 103,221 L 106,221 L 107,222 L 110,222 L 111,223 L 114,223 L 115,224 L 118,224 L 119,225 L 123,225 L 124,226 L 127,226 L 128,227 L 131,227 L 132,228 L 135,228 L 136,229 L 139,229 L 140,230 L 144,230 L 145,231 L 148,231 L 149,232 L 152,232 L 153,233 L 156,233 L 157,234 L 161,234 L 162,235 L 165,235 L 166,236 L 166,235 L 165,234 L 165,233 L 164,232 L 164,231 L 163,230 L 163,229 L 162,228 L 162,227 L 161,226 L 161,225 L 160,224 L 160,223 L 159,222 L 159,221 L 158,220 L 158,219 L 157,218 L 157,217 L 156,216 L 156,215 L 155,214 L 155,213 L 154,212 L 154,211 L 153,210 L 153,209 L 152,208 L 152,207 L 151,206 L 151,205 L 150,204 L 150,203 L 149,202 L 149,201 L 148,200 L 148,199 L 147,198 L 147,197 L 146,196 L 146,195 L 145,194 L 145,193 L 144,192 L 144,191 L 143,190 L 143,189 L 142,188 L 142,187 L 141,186 L 141,185 L 140,184 L 140,183 L 139,182 L 139,181 L 138,180 L 138,179 L 137,178 L 137,177 L 136,176 L 136,175 L 134,175 L 132,177 L 132,178 L 123,187 L 118,182 L 117,182 L 111,176 L 111,175 L 106,170 L 106,169 L 103,166 L 103,165 L 101,163 L 101,162 L 99,160 L 99,159 L 97,157 L 97,156 L 96,155 L 96,154 L 95,153 L 95,152 L 94,151 L 94,150 L 93,149 L 93,147 L 92,146 L 92,145 L 91,144 L 91,142 L 90,141 L 90,139 L 89,138 L 89,136 L 88,135 L 88,132 L 87,131 L 87,128 L 86,127 L 86,126 L 88,124 L 88,123 L 103,108 L 104,108 L 107,105 L 108,105 L 111,102 L 112,102 L 113,101 L 114,101 L 116,99 L 117,99 L 118,98 L 119,98 L 120,97 L 121,97 L 122,96 L 123,96 L 124,95 L 125,95 L 126,94 L 128,94 L 129,93 L 130,93 L 131,92 L 133,92 L 134,91 L 136,91 L 137,90 L 140,90 L 141,89 L 143,89 L 144,88 L 149,88 L 150,87 L 156,87 L 157,86 L 158,86 L 158,58 Z" fill="black" /><path d="M 300,38 L 300,39 L 305,44 L 305,45 L 310,50 L 310,51 L 315,56 L 315,57 L 321,63 L 321,64 L 326,69 L 326,70 L 331,75 L 331,76 L 337,82 L 337,83 L 342,88 L 342,89 L 343,90 L 344,90 L 344,89 L 346,87 L 346,86 L 347,85 L 347,84 L 348,83 L 348,82 L 349,81 L 349,80 L 351,78 L 351,77 L 352,76 L 354,76 L 355,77 L 356,77 L 357,78 L 358,78 L 359,79 L 360,79 L 361,80 L 362,80 L 364,82 L 365,82 L 367,84 L 368,84 L 370,86 L 371,86 L 375,90 L 376,90 L 388,102 L 388,103 L 392,107 L 392,108 L 394,110 L 394,111 L 396,113 L 396,114 L 397,115 L 397,116 L 399,118 L 399,119 L 400,120 L 400,121 L 401,122 L 401,123 L 402,124 L 402,125 L 403,126 L 402,127 L 402,128 L 401,129 L 401,130 L 400,131 L 400,132 L 399,133 L 399,134 L 398,135 L 398,136 L 397,137 L 397,138 L 395,140 L 395,141 L 393,143 L 393,144 L 389,148 L 389,149 L 384,154 L 384,155 L 383,156 L 382,156 L 373,165 L 372,165 L 370,167 L 369,167 L 366,170 L 365,170 L 363,172 L 362,172 L 361,173 L 360,173 L 359,174 L 358,174 L 357,175 L 356,175 L 354,177 L 352,177 L 351,178 L 350,178 L 349,179 L 347,179 L 346,180 L 345,180 L 344,181 L 342,181 L 342,184 L 343,185 L 343,188 L 344,189 L 344,191 L 345,192 L 345,195 L 346,196 L 346,199 L 347,200 L 347,203 L 348,204 L 348,206 L 349,207 L 349,209 L 350,208 L 351,208 L 352,207 L 353,207 L 354,206 L 355,206 L 356,205 L 357,205 L 358,204 L 359,204 L 360,203 L 361,203 L 363,201 L 364,201 L 367,198 L 368,198 L 370,196 L 371,196 L 383,184 L 383,183 L 387,179 L 387,178 L 389,176 L 389,175 L 391,173 L 391,172 L 392,171 L 392,170 L 393,169 L 393,168 L 394,167 L 394,166 L 395,165 L 395,164 L 396,163 L 396,162 L 397,161 L 397,160 L 398,159 L 398,157 L 399,156 L 399,154 L 400,153 L 400,151 L 401,150 L 401,148 L 402,147 L 402,143 L 403,142 L 403,138 L 404,137 L 404,127 L 405,126 L 404,125 L 404,112 L 403,111 L 403,107 L 402,106 L 402,102 L 401,101 L 401,99 L 400,98 L 400,96 L 399,95 L 399,92 L 398,91 L 398,90 L 397,89 L 397,88 L 396,87 L 396,86 L 395,85 L 395,83 L 394,82 L 394,81 L 392,79 L 392,78 L 391,77 L 391,76 L 389,74 L 389,73 L 387,71 L 387,70 L 383,66 L 383,65 L 372,54 L 371,54 L 367,50 L 367,48 L 368,47 L 368,46 L 369,45 L 369,44 L 371,42 L 371,41 L 372,40 L 372,39 L 373,38 Z" fill="black" /><path d="M 535,0 L 535,316 L 541,316 L 541,0 Z" fill="black" /></svg>