<svg version="1.1" id="Layer_1" xmlns="http://www.w3.org/2000/svg" xmlns:xlink="http://www.w3.org/1999/xlink" x="0px" y="0px"
	 width="100%" viewBox="0 0 80 93" enable-background="new 0 0 80 93" xml:space="preserve">
<path fill="#FFFFFF" opacity="1.000000" stroke="none" 
	d="
M49.000000,94.000000 
	C32.666668,94.000000 16.833334,94.000000 1.000000,94.000000 
	C1.000000,63.000000 1.000000,32.000000 1.000000,1.000000 
	C27.666666,1.000000 54.333332,1.000000 81.000000,1.000000 
	C81.000000,32.000000 81.000000,63.000000 81.000000,94.000000 
	C70.500000,94.000000 60.000000,94.000000 49.000000,94.000000 
M25.700233,64.463707 
	C25.700233,66.888741 25.700233,69.313782 25.700233,71.997650 
	C33.120262,71.997650 39.931168,72.149170 46.722374,71.851433 
	C47.880894,71.800636 49.888786,69.854050 49.920902,68.737724 
	C50.182785,59.633930 50.068298,50.519314 50.068298,41.277344 
	C41.743160,41.277344 33.846874,41.277344 25.700195,41.277344 
	C25.700195,48.859989 25.700195,56.167175 25.700233,64.463707 
M44.497917,19.998547 
	C34.056145,19.998547 23.614368,19.998547 13.172595,19.998547 
	C13.177457,20.228235 13.182320,20.457922 13.187181,20.687611 
	C29.064632,20.687611 44.942081,20.687611 60.819530,20.687611 
	C60.821285,20.457922 60.823036,20.228233 60.824787,19.998545 
	C55.715363,19.998545 50.605938,19.998545 44.497917,19.998547 
M73.001526,73.336601 
	C73.001526,59.652576 73.001526,45.968552 73.001526,32.284527 
	C72.788826,32.289490 72.576118,32.294453 72.363419,32.299416 
	C72.363419,48.094986 72.363419,63.890553 72.363419,79.686119 
	C72.576118,79.684898 72.788826,79.683685 73.001526,79.682465 
	C73.001526,77.879517 73.001526,76.076569 73.001526,73.336601 
M16.914051,92.001312 
	C31.574915,92.001312 46.235779,92.001312 60.896645,92.001312 
	C60.893589,91.770676 60.890537,91.540039 60.887482,91.309402 
	C44.977299,91.309402 29.067114,91.309402 13.156930,91.309402 
	C13.157038,91.539955 13.157145,91.770508 13.157251,92.001060 
	C14.120322,92.001060 15.083392,92.001060 16.914051,92.001312 
M9.813765,21.739368 
	C9.973622,21.624199 10.133479,21.509029 10.293337,21.393860 
	C10.070314,21.417168 9.847293,21.440475 9.813765,21.739368 
M64.185890,21.260315 
	C64.026184,21.375156 63.866470,21.489998 63.706764,21.604837 
	C63.929798,21.581764 64.152832,21.558691 64.185890,21.260315 
M71.260605,28.813761 
	C71.375778,28.973619 71.490952,29.133478 71.606125,29.293339 
	C71.582817,29.070314 71.559502,28.847290 71.260605,28.813761 
M71.475197,83.377930 
	C71.530090,83.162148 71.584984,82.946373 71.639870,82.730591 
	C71.505310,82.869003 71.370750,83.007423 71.475197,83.377930 
M10.187064,90.261086 
	C10.027363,90.375954 9.867661,90.490822 9.707963,90.605690 
	C9.930983,90.582596 10.154002,90.559509 10.187064,90.261086 
M63.812656,90.740303 
	C63.972496,90.625092 64.132332,90.509880 64.292168,90.394669 
	C64.069160,90.418015 63.846149,90.441360 63.812656,90.740303 
z"/>
<path fill="#202630" opacity="1.000000" stroke="none" 
	d="
M25.700214,63.969036 
	C25.700195,56.167175 25.700195,48.859989 25.700195,41.277344 
	C33.846874,41.277344 41.743160,41.277344 50.068298,41.277344 
	C50.068298,50.519314 50.182785,59.633930 49.920902,68.737724 
	C49.888786,69.854050 47.880894,71.800636 46.722374,71.851433 
	C39.931168,72.149170 33.120262,71.997650 25.700233,71.997650 
	C25.700233,69.313782 25.700233,66.888741 25.700214,63.969036 
M41.325573,50.999954 
	C42.448544,50.949146 43.571518,50.898335 44.764488,50.844357 
	C44.764488,48.798340 44.764488,47.066444 44.764488,45.238361 
	C39.785034,45.238361 35.043030,45.238361 30.244581,45.238361 
	C30.244581,47.211834 30.244581,48.943790 30.244581,51.000000 
	C33.780331,51.000000 37.077042,51.000000 41.325573,50.999954 
M40.034046,66.011978 
	C41.446537,66.818291 42.859024,67.624611 44.787292,68.725357 
	C44.787292,63.774681 44.787292,60.062778 44.787292,56.004387 
	C43.062061,56.084854 41.570061,56.154446 40.002960,56.227539 
	C40.002960,59.532543 40.002960,62.314987 40.034046,66.011978 
M30.080690,66.353081 
	C32.238407,66.625771 34.396126,66.898460 38.130959,67.370461 
	C36.721817,65.135117 35.770287,63.080158 35.430122,63.176815 
	C33.568256,63.705853 30.084635,60.861992 30.080690,66.353081 
z"/>
<path fill="#EBEDF0" opacity="1.000000" stroke="none" 
	d="
M44.997215,19.998547 
	C50.605938,19.998545 55.715363,19.998545 60.824787,19.998545 
	C60.823036,20.228233 60.821285,20.457922 60.819530,20.687611 
	C44.942081,20.687611 29.064632,20.687611 13.187181,20.687611 
	C13.182320,20.457922 13.177457,20.228235 13.172595,19.998547 
	C23.614368,19.998547 34.056145,19.998547 44.997215,19.998547 
z"/>
<path fill="#EBEDF0" opacity="1.000000" stroke="none" 
	d="
M73.001526,73.805115 
	C73.001526,76.076569 73.001526,77.879517 73.001526,79.682465 
	C72.788826,79.683685 72.576118,79.684898 72.363419,79.686119 
	C72.363419,63.890553 72.363419,48.094986 72.363419,32.299416 
	C72.576118,32.294453 72.788826,32.289490 73.001526,32.284527 
	C73.001526,45.968552 73.001526,59.652576 73.001526,73.805115 
z"/>
<path fill="#EBEDF0" opacity="1.000000" stroke="none" 
	d="
M16.480257,92.001190 
	C15.083392,92.001060 14.120322,92.001060 13.157251,92.001060 
	C13.157145,91.770508 13.157038,91.539955 13.156930,91.309402 
	C29.067114,91.309402 44.977299,91.309402 60.887482,91.309402 
	C60.890537,91.540039 60.893589,91.770676 60.896645,92.001312 
	C46.235779,92.001312 31.574915,92.001312 16.480257,92.001190 
z"/>
<path fill="#EBEDF0" opacity="1.000000" stroke="none" 
	d="
M9.719017,21.601576 
	C9.847293,21.440475 10.070314,21.417168 10.293337,21.393860 
	C10.133479,21.509029 9.973622,21.624199 9.719017,21.601576 
z"/>
<path fill="#EBEDF0" opacity="1.000000" stroke="none" 
	d="
M64.280884,21.397966 
	C64.152832,21.558691 63.929798,21.581764 63.706764,21.604837 
	C63.866470,21.489998 64.026184,21.375156 64.280884,21.397966 
z"/>
<path fill="#EBEDF0" opacity="1.000000" stroke="none" 
	d="
M71.398399,28.719013 
	C71.559502,28.847290 71.582817,29.070314 71.606125,29.293339 
	C71.490952,29.133478 71.375778,28.973619 71.398399,28.719013 
z"/>
<path fill="#EBEDF0" opacity="1.000000" stroke="none" 
	d="
M71.355698,83.261887 
	C71.370750,83.007423 71.505310,82.869003 71.639870,82.730591 
	C71.584984,82.946373 71.530090,83.162148 71.355698,83.261887 
z"/>
<path fill="#EBEDF0" opacity="1.000000" stroke="none" 
	d="
M10.282043,90.398758 
	C10.154002,90.559509 9.930983,90.582596 9.707962,90.605682 
	C9.867661,90.490822 10.027363,90.375954 10.282043,90.398758 
z"/>
<path fill="#EBEDF0" opacity="1.000000" stroke="none" 
	d="
M63.717896,90.602509 
	C63.846149,90.441360 64.069160,90.418015 64.292175,90.394669 
	C64.132332,90.509880 63.972496,90.625092 63.717896,90.602509 
z"/>
<path fill="#FFFFFF" opacity="1.000000" stroke="none" 
	d="
M40.849663,50.999977 
	C37.077042,51.000000 33.780331,51.000000 30.244581,51.000000 
	C30.244581,48.943790 30.244581,47.211834 30.244581,45.238361 
	C35.043030,45.238361 39.785034,45.238361 44.764488,45.238361 
	C44.764488,47.066444 44.764488,48.798340 44.764488,50.844357 
	C43.571518,50.898335 42.448544,50.949146 40.849663,50.999977 
z"/>
<path fill="#FFFFFF" opacity="1.000000" stroke="none" 
	d="
M40.018501,65.554703 
	C40.002960,62.314987 40.002960,59.532543 40.002960,56.227539 
	C41.570061,56.154446 43.062061,56.084854 44.787292,56.004387 
	C44.787292,60.062778 44.787292,63.774681 44.787292,68.725357 
	C42.859024,67.624611 41.446537,66.818291 40.018501,65.554703 
z"/>
<path fill="#FFFFFF" opacity="1.000000" stroke="none" 
	d="
M30.044649,65.902901 
	C30.084635,60.861992 33.568256,63.705853 35.430122,63.176815 
	C35.770287,63.080158 36.721817,65.135117 38.130959,67.370461 
	C34.396126,66.898460 32.238407,66.625771 30.044649,65.902901 
z"/>
</svg>