<svg version="1.1" id="Layer_1" xmlns="http://www.w3.org/2000/svg" xmlns:xlink="http://www.w3.org/1999/xlink" x="0px" y="0px"
	 width="100%" viewBox="0 0 324 266" enable-background="new 0 0 324 266" xml:space="preserve">
<path fill="#FFFFFF" opacity="1.000000" stroke="none" 
	d="
M167.000000,267.000000 
	C111.333344,267.000000 56.166687,267.000000 1.000022,267.000000 
	C1.000015,178.333359 1.000015,89.666718 1.000007,1.000058 
	C108.999962,1.000039 216.999924,1.000039 324.999908,1.000019 
	C324.999939,89.666603 324.999939,178.333206 324.999969,266.999908 
	C272.500000,267.000000 220.000000,267.000000 167.000000,267.000000 
M257.014923,187.628510 
	C257.296875,187.801987 257.578857,187.975479 258.168793,188.821671 
	C259.233948,189.695923 260.299133,190.570175 261.664734,191.691010 
	C263.100311,183.382751 264.431763,175.677170 265.992889,167.191833 
	C266.048492,166.115189 266.104095,165.038559 266.320435,163.730743 
	C266.320435,163.730743 266.160217,163.499207 266.778809,162.940079 
	C267.024414,158.934784 267.270020,154.929504 267.445190,151.038040 
	C267.445190,151.038040 267.505737,150.925537 267.685883,150.244659 
	C267.176086,148.802551 266.666260,147.360443 266.062897,145.319153 
	C265.425842,143.592438 264.788788,141.865707 264.065216,139.381912 
	C264.099243,137.328766 265.503235,134.255920 261.314850,135.058289 
	C249.279572,137.363907 237.267242,139.789413 224.000168,142.414276 
	C227.300842,146.293793 229.921310,149.373795 232.720047,152.663330 
	C222.610672,163.232635 212.454071,173.851334 202.058929,184.719421 
	C199.266220,181.699570 197.129532,179.389114 195.069656,176.133911 
	C195.069656,130.386292 195.069656,84.638680 195.069656,38.601440 
	C180.199066,38.601440 165.851608,38.601440 151.398651,38.601440 
	C151.297989,39.975819 151.163330,40.958313 151.163086,41.940845 
	C151.152756,84.068291 151.151489,126.195747 151.167648,168.323196 
	C151.168167,169.647781 151.363403,170.972305 151.099182,172.862961 
	C147.080658,176.823181 143.062134,180.783417 139.004395,183.839111 
	C139.004395,150.403275 139.004395,116.967438 139.004395,83.339897 
	C124.051865,83.339897 109.814491,83.339897 95.415207,83.339897 
	C95.415207,120.010300 95.415207,156.376862 95.415207,193.113480 
	C99.635933,193.113480 103.453987,193.045700 107.268814,193.127792 
	C114.892921,193.291855 122.515251,193.537994 129.756378,194.357498 
	C118.876907,205.312195 107.997429,216.266891 96.343269,228.001648 
	C101.535881,228.001648 105.345985,228.124573 109.144928,227.971024 
	C114.055244,227.772522 118.956627,227.353195 124.528069,227.166351 
	C124.975685,227.211533 125.423309,227.256714 126.377884,227.643112 
	C127.249962,227.413681 128.122040,227.184235 129.669159,226.996094 
	C130.119858,226.982330 130.570557,226.968567 131.456909,227.504349 
	C132.611435,227.681381 133.765961,227.858398 135.648331,228.060913 
	C139.684540,223.731155 143.720734,219.401382 148.410568,214.860184 
	C149.618973,213.527054 150.827377,212.193924 152.724640,210.871399 
	C157.723206,205.895508 162.658051,200.852463 167.772507,195.998672 
	C168.833893,194.991379 170.561600,194.686172 172.232803,194.674484 
	C181.812042,204.139465 191.391281,213.604462 201.192169,223.596786 
	C201.939957,223.387848 202.687744,223.178909 203.861389,222.769424 
	C203.861389,222.769424 204.030823,222.330246 204.546295,222.049332 
	C208.400131,218.037491 212.253952,214.025650 216.799133,209.915131 
	C218.155746,208.546600 219.638275,207.279236 220.838760,205.785248 
	C222.533127,203.676636 223.769287,201.157089 225.638657,199.239563 
	C232.331924,192.373886 239.209473,185.687866 246.538361,178.910202 
	C246.695374,178.835510 246.852371,178.760803 247.671463,178.890594 
	C249.398956,180.307327 251.126465,181.724060 253.013138,183.623474 
	C253.294083,183.796570 253.575012,183.969681 254.013672,184.626297 
	C254.294434,184.798599 254.575195,184.970886 255.013351,185.627853 
	C255.295151,185.800461 255.576965,185.973053 256.015442,186.627060 
	C256.295654,186.799103 256.575836,186.971130 257.014923,187.628510 
M38.867329,146.500595 
	C38.867329,161.901062 38.867329,177.301529 38.867329,192.648911 
	C53.752644,192.648911 67.781548,192.648911 81.807083,192.648911 
	C81.807083,170.952972 81.807083,149.722031 81.807083,128.267181 
	C67.440086,128.267181 53.412956,128.267181 38.867043,128.267181 
	C38.867043,134.256744 38.867043,139.878967 38.867329,146.500595 
z"/>
<path fill="#AFB5BD" opacity="1.000000" stroke="none" 
	d="
M151.467850,172.296860 
	C151.363403,170.972305 151.168167,169.647781 151.167648,168.323196 
	C151.151489,126.195747 151.152756,84.068291 151.163086,41.940845 
	C151.163330,40.958313 151.297989,39.975819 151.398651,38.601440 
	C165.851608,38.601440 180.199066,38.601440 195.069656,38.601440 
	C195.069656,84.638680 195.069656,130.386292 194.729279,176.455933 
	C186.835617,168.953384 179.282364,161.128799 171.536087,153.104263 
	C164.291031,160.033188 157.879440,166.165024 151.467850,172.296860 
z"/>
<path fill="#AEB4BC" opacity="1.000000" stroke="none" 
	d="
M130.138321,193.750244 
	C122.515251,193.537994 114.892921,193.291855 107.268814,193.127792 
	C103.453987,193.045700 99.635933,193.113480 95.415207,193.113480 
	C95.415207,156.376862 95.415207,120.010300 95.415207,83.339897 
	C109.814491,83.339897 124.051865,83.339897 139.004395,83.339897 
	C139.004395,116.967438 139.004395,150.403275 138.873230,184.607971 
	C135.874130,188.167953 133.006226,190.959091 130.138321,193.750244 
z"/>
<path fill="#F7D23B" opacity="1.000000" stroke="none" 
	d="
M129.947357,194.053864 
	C133.006226,190.959091 135.874130,188.167953 138.892822,185.060242 
	C143.062134,180.783417 147.080658,176.823181 151.283508,172.579910 
	C157.879440,166.165024 164.291031,160.033188 171.536087,153.104263 
	C179.282364,161.128799 186.835617,168.953384 194.690872,176.928314 
	C197.129532,179.389114 199.266220,181.699570 202.058929,184.719421 
	C212.454071,173.851334 222.610672,163.232635 232.720047,152.663330 
	C229.921310,149.373795 227.300842,146.293793 224.000168,142.414276 
	C237.267242,139.789413 249.279572,137.363907 261.314850,135.058289 
	C265.503235,134.255920 264.099243,137.328766 264.109009,140.159546 
	C264.089874,142.241058 264.026947,143.544937 263.573700,144.922592 
	C261.785370,150.974213 260.387360,156.952026 258.820160,163.153793 
	C258.576324,163.927277 258.501678,164.476822 258.260529,165.364349 
	C258.056458,166.450363 258.018921,167.198395 257.873474,168.162155 
	C257.723083,168.849564 257.680573,169.321228 257.402893,170.132263 
	C257.106873,171.289047 257.046021,172.106461 256.666687,173.110519 
	C255.697998,173.541382 255.047745,173.785614 254.617065,174.725067 
	C254.664932,175.875015 254.493210,176.329712 254.067902,176.526062 
	C252.737213,175.246506 251.660065,174.225342 250.501160,172.595947 
	C249.918457,170.439041 249.417526,168.890350 248.887161,167.036041 
	C248.573975,166.473099 248.290237,166.215775 247.832794,165.667297 
	C246.585724,165.931870 245.512344,166.487610 244.432632,167.372223 
	C241.071259,171.014435 237.721375,174.332993 234.360214,177.640091 
	C223.922577,187.909836 213.480652,198.175232 202.753113,208.676086 
	C201.732819,208.964096 200.999802,209.018326 200.175629,209.047882 
	C200.084473,209.023209 199.905121,208.963974 199.888550,208.740295 
	C199.724869,208.223526 199.488739,208.055222 199.067749,207.726227 
	C198.623566,207.294449 198.275223,207.148178 197.962265,207.001465 
	C197.997650,207.001022 197.997070,207.071793 197.978806,206.769653 
	C197.616425,206.312653 197.272324,206.157791 196.963318,206.002258 
	C196.998413,206.001602 196.997070,206.071793 196.978806,205.769653 
	C196.616425,205.312668 196.272308,205.157791 195.963318,205.002258 
	C195.998413,205.001602 195.997070,205.071793 195.978806,204.769653 
	C195.616440,204.312653 195.272324,204.157776 194.963318,204.002258 
	C194.998413,204.001602 194.997070,204.071793 194.978806,203.769653 
	C194.616425,203.312653 194.272324,203.157791 193.963318,203.002258 
	C193.998413,203.001602 193.997070,203.071793 193.978806,202.769653 
	C193.616425,202.312653 193.272324,202.157791 192.963318,202.002258 
	C192.998413,202.001602 192.997070,202.071793 192.978806,201.769653 
	C192.616440,201.312653 192.272324,201.157776 191.963318,201.002258 
	C191.998413,201.001602 191.997070,201.071793 191.978806,200.769653 
	C191.616425,200.312653 191.272324,200.157791 190.963318,200.002258 
	C190.998413,200.001602 190.997070,200.071793 190.978806,199.769653 
	C190.616425,199.312653 190.272324,199.157791 189.963318,199.002258 
	C189.998413,199.001602 189.997070,199.071793 189.978806,198.769653 
	C189.616425,198.312668 189.272308,198.157791 188.963318,198.002258 
	C188.998413,198.001602 188.997070,198.071793 188.978806,197.769653 
	C188.616440,197.312653 188.272324,197.157776 187.963318,197.002258 
	C187.998413,197.001602 187.997070,197.071793 187.978806,196.769653 
	C187.616425,196.312653 187.272324,196.157791 186.963318,196.002258 
	C186.998413,196.001602 186.997070,196.071793 186.978806,195.769653 
	C186.616425,195.312653 186.272324,195.157791 185.963318,195.002258 
	C185.998413,195.001602 185.997070,195.071793 185.978806,194.769653 
	C185.616440,194.312653 185.272324,194.157776 184.963318,194.002258 
	C184.998413,194.001602 184.997070,194.071793 184.978806,193.769653 
	C184.616440,193.312653 184.272324,193.157776 183.963318,193.002258 
	C183.998413,193.001602 183.997070,193.071793 183.978806,192.769653 
	C183.616425,192.312653 183.272324,192.157791 182.963318,192.002258 
	C182.998413,192.001602 182.997070,192.071793 182.978806,191.769669 
	C182.616425,191.312668 182.272308,191.157791 181.963318,191.002258 
	C181.998413,191.001602 181.997070,191.071793 181.978806,190.769653 
	C181.616440,190.312653 181.272324,190.157776 180.963318,190.002258 
	C180.998413,190.001602 180.997070,190.071793 180.978806,189.769653 
	C180.616425,189.312653 180.272324,189.157791 179.963318,189.002258 
	C179.998413,189.001602 179.997070,189.071793 179.978806,188.769653 
	C179.616425,188.312653 179.272324,188.157791 178.963318,188.002258 
	C178.998413,188.001602 178.997070,188.071793 178.978806,187.769653 
	C178.616440,187.312653 178.272324,187.157776 177.963318,187.002258 
	C177.998413,187.001602 177.997070,187.071793 177.978806,186.769653 
	C177.616440,186.312653 177.272324,186.157776 176.963318,186.002258 
	C176.998413,186.001602 176.997070,186.071793 176.978806,185.769653 
	C176.616425,185.312653 176.272324,185.157791 175.963318,185.002258 
	C175.998413,185.001602 175.997070,185.071793 175.978806,184.769669 
	C175.616425,184.312668 175.272308,184.157791 174.963516,184.002472 
	C174.998825,184.002029 174.997910,184.072647 174.979614,183.764404 
	C174.337631,182.958359 173.713928,182.460541 173.034058,181.629761 
	C171.865662,178.774307 170.640228,177.924850 168.972137,181.332458 
	C167.436234,182.864899 166.074875,184.102402 164.430573,185.385254 
	C163.733566,186.012405 163.319519,186.594193 162.778625,187.423279 
	C161.831528,188.409180 161.011261,189.147797 159.842285,189.975876 
	C154.969513,194.631531 150.445435,199.197739 145.518768,204.022888 
	C145.070084,205.042511 145.024017,205.803177 144.800644,206.765076 
	C144.472961,207.694626 144.322571,208.422928 143.903229,209.239868 
	C140.117615,212.056107 136.600983,214.783737 132.573120,217.541382 
	C131.821747,217.814102 131.581589,218.056778 131.382141,218.293030 
	C131.422867,218.286606 131.304291,218.325836 130.762314,218.909348 
	C130.301758,220.017502 130.383194,220.542130 130.367706,221.195953 
	C130.073456,221.585953 129.838837,221.805481 129.228821,221.606750 
	C128.255310,222.176758 127.619904,223.123749 126.987823,224.028198 
	C126.991142,223.985641 127.076477,223.987122 126.753754,223.887024 
	C126.266373,224.204651 126.101730,224.622360 125.900116,225.172379 
	C125.863144,225.304688 125.751663,225.555817 125.509232,225.564590 
	C124.798485,226.058563 124.330177,226.543762 123.861862,227.028961 
	C118.956627,227.353195 114.055244,227.772522 109.144928,227.971024 
	C105.345985,228.124573 101.535881,228.001648 96.343269,228.001648 
	C107.997429,216.266891 118.876907,205.312195 129.947357,194.053864 
z"/>
<path fill="#AEB4BC" opacity="1.000000" stroke="none" 
	d="
M38.867188,146.000885 
	C38.867043,139.878967 38.867043,134.256744 38.867043,128.267181 
	C53.412956,128.267181 67.440086,128.267181 81.807083,128.267181 
	C81.807083,149.722031 81.807083,170.952972 81.807083,192.648911 
	C67.781548,192.648911 53.752644,192.648911 38.867329,192.648911 
	C38.867329,177.301529 38.867329,161.901062 38.867188,146.000885 
z"/>
<path fill="#D6D8DA" opacity="1.000000" stroke="none" 
	d="
M133.084351,217.511368 
	C136.600983,214.783737 140.117615,212.056107 144.317291,209.204773 
	C146.157120,207.959991 150.156006,208.222153 147.112625,204.713013 
	C148.154236,203.618393 149.071518,202.807129 150.337799,201.997162 
	C151.384781,201.998947 152.082748,201.999420 152.682571,202.426025 
	C153.768967,202.321655 154.953506,201.791168 156.436859,201.100403 
	C160.249390,197.309662 163.763092,193.679214 167.276779,190.048767 
	C166.795959,189.609421 166.315155,189.170074 165.834335,188.730728 
	C162.250198,192.498123 158.666061,196.265518 154.848602,200.144409 
	C154.204666,200.557632 153.794037,200.859375 153.097748,201.035583 
	C152.540497,200.602509 152.268921,200.294968 152.136139,199.684326 
	C154.913620,196.216278 157.552307,193.051346 160.190994,189.886414 
	C161.011261,189.147797 161.831528,188.409180 162.944702,187.217957 
	C163.729584,186.290192 164.221558,185.815048 164.713531,185.339905 
	C166.074875,184.102402 167.436234,182.864899 169.211731,181.451813 
	C170.087112,182.341492 170.548340,183.406784 170.627686,184.529495 
	C169.478439,185.463104 168.711060,186.339294 167.850998,187.321289 
	C169.976273,187.616669 171.487732,187.826736 173.003616,188.014618 
	C173.008026,187.992432 172.962799,187.992630 172.887054,188.339478 
	C173.209885,188.803268 173.608490,188.920227 174.008484,189.013641 
	C174.009903,188.990112 173.962799,188.992630 173.887054,189.339478 
	C174.209885,189.803268 174.608490,189.920227 175.008484,190.013641 
	C175.009903,189.990112 174.962799,189.992630 174.887054,190.339478 
	C175.209885,190.803284 175.608475,190.920242 176.008484,191.013657 
	C176.009903,190.990112 175.962799,190.992630 175.887054,191.339478 
	C176.209885,191.803268 176.608490,191.920227 177.007965,192.014862 
	C177.008865,191.992554 176.964630,191.998810 176.878769,192.347336 
	C177.528854,193.142334 178.264801,193.588791 179.004639,194.016022 
	C179.008545,193.996796 178.969406,193.999878 178.777542,194.225006 
	C178.639893,194.639847 178.694122,194.829544 178.391541,195.049942 
	C177.573090,195.207123 177.111435,195.333618 176.326294,195.387268 
	C174.690216,194.155563 173.377594,192.996689 171.885895,191.529129 
	C170.654388,191.677658 169.359299,191.885529 168.590347,192.633972 
	C164.663239,196.456482 160.793747,200.345978 157.066254,204.362518 
	C155.210297,206.362366 153.701569,208.684448 152.035767,210.860779 
	C150.827377,212.193924 149.618973,213.527054 147.754395,215.013153 
	C143.038971,219.455887 138.979721,223.745651 134.920471,228.035416 
	C133.765961,227.858398 132.611435,227.681381 131.374451,226.944611 
	C131.889435,225.519516 132.486893,224.654175 133.425186,223.802216 
	C136.766953,221.025665 139.767868,218.235733 142.768784,215.445801 
	C142.375397,215.015060 141.981995,214.584305 141.588593,214.153549 
	C139.729736,215.798355 137.870880,217.443146 135.784653,218.824066 
	C135.126480,218.604782 134.695679,218.649338 133.950287,218.521820 
	C133.451935,218.070267 133.268143,217.790817 133.084351,217.511368 
z"/>
<path fill="#E2E4E6" opacity="1.000000" stroke="none" 
	d="
M246.017349,178.933914 
	C239.209473,185.687866 232.331924,192.373886 225.638657,199.239563 
	C223.769287,201.157089 222.533127,203.676636 220.838760,205.785248 
	C219.638275,207.279236 218.155746,208.546600 216.283722,209.683319 
	C211.534714,213.379730 207.301102,217.307968 202.615936,221.227295 
	C201.756699,220.133316 201.349060,219.048233 201.266815,217.842041 
	C209.344620,210.163895 217.100113,202.609985 224.827972,195.027924 
	C224.986176,194.872696 224.823364,194.390305 225.128281,193.927307 
	C231.982819,187.135681 238.519394,180.477310 245.388596,173.852692 
	C246.668350,174.026199 247.615494,174.165939 248.562622,174.305695 
	C248.164444,174.863586 247.766266,175.421478 247.237732,176.194153 
	C247.056656,176.568558 247.005936,176.728195 246.669769,177.018463 
	C246.261978,177.744034 246.139664,178.338974 246.017349,178.933914 
z"/>
<path fill="#0F1214" opacity="1.000000" stroke="none" 
	d="
M258.989319,162.929855 
	C260.387360,156.952026 261.785370,150.974213 263.570404,145.261353 
	C263.976074,147.021729 263.994720,148.517105 263.741211,150.036346 
	C263.062500,150.327225 262.655914,150.594254 262.249329,150.861282 
	C262.404480,151.045532 262.559662,151.229782 262.714813,151.414032 
	C263.140228,150.938553 263.565643,150.463058 264.267212,149.776245 
	C265.081055,148.349380 265.618774,147.133850 266.156464,145.918335 
	C266.666260,147.360443 267.176086,148.802551 267.208923,150.588348 
	C266.123566,151.596390 265.515167,152.260757 264.906799,152.925140 
	C265.236389,153.159622 265.566010,153.394104 265.895599,153.628586 
	C266.435608,152.727127 266.975616,151.825668 267.515625,150.924210 
	C267.270020,154.929504 267.024414,158.934784 266.411652,162.760208 
	C265.911102,160.493286 265.777740,158.406235 265.644379,156.319183 
	C265.225647,156.332321 264.806915,156.345459 264.388184,156.358597 
	C264.201263,158.959183 264.014343,161.559784 263.886475,164.423462 
	C264.105591,164.920197 264.265594,165.153854 264.425598,165.387527 
	C264.617462,164.925217 264.809326,164.462906 265.290649,163.985397 
	C265.773254,163.967422 265.966461,163.964676 266.159698,163.961914 
	C266.104095,165.038559 266.048492,166.115189 265.611328,167.566315 
	C264.875397,167.908417 264.521088,167.876038 263.947449,167.582458 
	C262.947876,166.221619 262.167603,165.121964 261.471954,164.141556 
	C260.847687,164.600586 259.931488,165.274323 259.023407,165.720383 
	C259.031555,165.492706 259.037201,165.037125 259.062195,164.685562 
	C259.054596,163.865952 259.021973,163.397903 258.989319,162.929855 
M263.024200,158.487473 
	C262.646637,158.228256 262.269104,157.969040 261.891510,157.709824 
	C261.774475,158.104294 261.657440,158.498779 261.540436,158.893265 
	C262.008636,158.945755 262.476837,158.998260 263.024200,158.487473 
z"/>
<path fill="#2C2E31" opacity="1.000000" stroke="none" 
	d="
M200.941422,217.963135 
	C201.349060,219.048233 201.756699,220.133316 202.809753,221.542206 
	C203.647034,222.020737 203.838928,222.175491 204.030823,222.330246 
	C204.030823,222.330246 203.861389,222.769424 203.364532,222.629089 
	C202.235306,222.682327 201.602905,222.875885 200.970520,223.069443 
	C191.391281,213.604462 181.812042,204.139465 172.118484,193.995911 
	C172.024429,192.824158 172.044693,192.330994 172.064941,191.837814 
	C173.377594,192.996689 174.690216,194.155563 176.387955,195.420242 
	C176.773071,195.526031 176.913223,195.550140 176.970596,195.913696 
	C179.337494,198.619354 181.647018,200.961456 183.993134,203.501221 
	C184.183868,203.957428 184.411057,204.075684 184.907837,204.334839 
	C187.052704,206.508301 189.000977,208.400604 190.987213,210.492767 
	C191.180435,210.954285 191.409851,211.075165 191.893127,211.316376 
	C192.695297,212.145096 193.317795,212.712677 194.022614,213.528198 
	C194.638397,214.200623 195.171875,214.625092 195.929382,215.361328 
	C197.783966,216.441559 199.414551,217.210022 201.015900,217.996979 
	C200.986664,218.015488 200.941422,217.963135 200.941422,217.963135 
z"/>
<path fill="#25282B" opacity="1.000000" stroke="none" 
	d="
M264.166748,167.843643 
	C264.521088,167.876038 264.875397,167.908417 265.496460,167.956207 
	C264.431763,175.677170 263.100311,183.382751 261.664734,191.691010 
	C260.299133,190.570175 259.233948,189.695923 258.198242,188.267593 
	C258.346954,187.565857 258.466217,187.418182 258.865631,187.477203 
	C260.204224,184.925247 261.262634,182.166595 262.321014,179.407928 
	C261.851562,179.244400 261.382080,179.080856 260.912628,178.917328 
	C260.431030,180.472076 259.949463,182.026840 259.129120,184.675232 
	C257.222137,182.347168 255.939667,180.781494 255.020447,178.942780 
	C256.363831,179.069763 257.343933,179.469788 258.542419,179.958954 
	C258.791138,178.154648 258.989655,176.714371 259.641785,175.206650 
	C260.396576,175.092758 260.697784,175.046326 261.302551,174.856659 
	C262.037415,173.736771 262.468719,172.760132 262.900940,171.516327 
	C262.894073,170.895248 262.886230,170.541336 263.016541,169.884277 
	C263.492065,169.001984 263.829407,168.422821 264.166748,167.843643 
z"/>
<path fill="#1E2123" opacity="1.000000" stroke="none" 
	d="
M171.885880,191.529129 
	C172.044693,192.330994 172.024429,192.824158 171.993195,193.687378 
	C170.561600,194.686172 168.833893,194.991379 167.772507,195.998672 
	C162.658051,200.852463 157.723206,205.895508 152.380203,210.866089 
	C153.701569,208.684448 155.210297,206.362366 157.066254,204.362518 
	C160.793747,200.345978 164.663239,196.456482 168.590347,192.633972 
	C169.359299,191.885529 170.654388,191.677658 171.885880,191.529129 
z"/>
<path fill="#2C2E31" opacity="1.000000" stroke="none" 
	d="
M135.284393,228.048157 
	C138.979721,223.745651 143.038971,219.455887 147.427567,215.118866 
	C143.720734,219.401382 139.684540,223.731155 135.284393,228.048157 
z"/>
<path fill="#1E2123" opacity="1.000000" stroke="none" 
	d="
M204.288559,222.189789 
	C203.838928,222.175491 203.647034,222.020737 203.261322,221.551086 
	C207.301102,217.307968 211.534714,213.379730 215.938049,209.732666 
	C212.253952,214.025650 208.400131,218.037491 204.288559,222.189789 
z"/>
<path fill="#D3D5D7" opacity="1.000000" stroke="none" 
	d="
M133.084351,223.788834 
	C132.486893,224.654175 131.889435,225.519516 131.156616,226.669830 
	C130.570557,226.968567 130.119858,226.982330 129.333130,226.649826 
	C128.693359,225.544205 128.389603,224.784851 128.212524,223.732941 
	C128.748444,222.954834 129.157684,222.469284 129.566925,221.983734 
	C129.838837,221.805481 130.073456,221.585953 130.836761,220.899475 
	C135.533737,219.767593 132.667831,222.610764 133.084351,223.788834 
z"/>
<path fill="#2B2D30" opacity="1.000000" stroke="none" 
	d="
M264.013367,150.012497 
	C263.994720,148.517105 263.976074,147.021729 263.960724,145.187561 
	C264.026947,143.544937 264.089874,142.241058 264.152252,140.538086 
	C264.788788,141.865707 265.425842,143.592438 266.109680,145.618744 
	C265.618774,147.133850 265.081055,148.349380 264.272034,149.782806 
	C264.000702,150.000732 264.013367,150.012497 264.013367,150.012497 
z"/>
<path fill="#25282B" opacity="1.000000" stroke="none" 
	d="
M246.955231,176.887817 
	C247.005936,176.728195 247.056656,176.568558 247.252335,176.211456 
	C247.397308,176.013977 247.430374,176.021591 247.763000,176.169647 
	C248.741058,176.556946 249.386475,176.796219 250.020569,177.014526 
	C250.009232,176.993546 249.963577,176.979843 249.913208,177.317184 
	C250.248550,177.781830 250.634262,177.909134 251.012970,178.015198 
	C251.005997,177.993973 250.963577,177.979843 250.913208,178.317200 
	C251.248535,178.781845 251.634247,178.909149 252.013214,179.015564 
	C252.006454,178.994675 251.964386,178.982101 251.901367,179.312637 
	C252.463211,180.560547 253.088074,181.477921 253.496368,182.579590 
	C253.137848,182.889511 252.995895,183.015152 252.853958,183.140793 
	C251.126465,181.724060 249.398956,180.307327 247.338440,178.488678 
	C246.988678,177.687103 246.971954,177.287460 246.955231,176.887817 
z"/>
<path fill="#2B2D30" opacity="1.000000" stroke="none" 
	d="
M266.240051,163.846329 
	C265.966461,163.964676 265.773254,163.967422 264.995544,164.013107 
	C264.216461,164.090805 264.021942,164.125595 263.827423,164.160370 
	C264.014343,161.559784 264.201263,158.959183 264.388184,156.358597 
	C264.806915,156.345459 265.225647,156.332321 265.644379,156.319183 
	C265.777740,158.406235 265.911102,160.493286 266.102356,163.039764 
	C266.160217,163.499207 266.320435,163.730743 266.240051,163.846329 
z"/>
<path fill="#D6D8DA" opacity="1.000000" stroke="none" 
	d="
M128.085846,224.025497 
	C128.389603,224.784851 128.693359,225.544205 128.995621,226.629181 
	C128.122040,227.184235 127.249962,227.413681 126.164192,227.173264 
	C125.884216,226.320877 125.817940,225.938354 125.751663,225.555817 
	C125.751663,225.555817 125.863144,225.304688 126.200806,225.151413 
	C126.717804,224.661133 126.897141,224.324127 127.076477,223.987122 
	C127.076477,223.987122 126.991142,223.985641 127.265762,224.078918 
	C127.722198,224.123291 127.904022,224.074387 128.085846,224.025497 
z"/>
<path fill="#1E2123" opacity="1.000000" stroke="none" 
	d="
M201.081345,223.333115 
	C201.602905,222.875885 202.235306,222.682327 203.151611,222.729370 
	C202.687744,223.178909 201.939957,223.387848 201.081345,223.333115 
z"/>
<path fill="#D3D5D7" opacity="1.000000" stroke="none" 
	d="
M125.509232,225.564590 
	C125.817940,225.938354 125.884216,226.320877 125.910713,227.002655 
	C125.423309,227.256714 124.975685,227.211533 124.194969,227.097656 
	C124.330177,226.543762 124.798485,226.058563 125.509232,225.564590 
z"/>
<path fill="#2B2D30" opacity="1.000000" stroke="none" 
	d="
M246.669769,177.018463 
	C246.971954,177.287460 246.988678,177.687103 247.007385,178.386429 
	C246.852371,178.760803 246.695374,178.835510 246.277863,178.922058 
	C246.139664,178.338974 246.261978,177.744034 246.669769,177.018463 
z"/>
<path fill="#25282B" opacity="1.000000" stroke="none" 
	d="
M255.858765,186.145660 
	C255.576965,185.973053 255.295151,185.800461 255.134583,185.183380 
	C255.388718,184.603760 255.521606,184.468597 255.833496,184.487427 
	C256.241882,184.857773 256.455872,185.088440 256.455261,185.536224 
	C256.123627,185.874588 255.991180,186.010132 255.858765,186.145660 
z"/>
<path fill="#25282B" opacity="1.000000" stroke="none" 
	d="
M255.055878,184.941040 
	C254.575195,184.970886 254.294434,184.798599 254.135010,184.182755 
	C254.389404,183.604294 254.522461,183.469376 254.834290,183.488342 
	C255.242447,183.858185 255.456253,184.088608 255.654480,184.333450 
	C255.521606,184.468597 255.388718,184.603760 255.055878,184.941040 
z"/>
<path fill="#25282B" opacity="1.000000" stroke="none" 
	d="
M254.056152,183.940994 
	C253.575012,183.969681 253.294083,183.796570 252.933548,183.382141 
	C252.995895,183.015152 253.137848,182.889511 253.663879,182.725555 
	C254.272629,182.882187 254.475143,183.097931 254.655518,183.334473 
	C254.522461,183.469376 254.389404,183.604294 254.056152,183.940994 
z"/>
<path fill="#25282B" opacity="1.000000" stroke="none" 
	d="
M258.044250,187.931244 
	C257.578857,187.975479 257.296875,187.801987 257.134979,187.183289 
	C257.387512,186.602539 257.519958,186.466995 257.822083,186.473328 
	C258.197845,186.826233 258.395752,187.044662 258.585449,187.270508 
	C258.466217,187.418182 258.346954,187.565857 258.044250,187.931244 
z"/>
<path fill="#25282B" opacity="1.000000" stroke="none" 
	d="
M257.055542,186.940613 
	C256.575836,186.971130 256.295654,186.799103 255.937103,186.386353 
	C255.991180,186.010132 256.123627,185.874588 256.633972,185.689850 
	C257.240540,185.856903 257.454041,186.087158 257.652435,186.331436 
	C257.519958,186.466995 257.387512,186.602539 257.055542,186.940613 
z"/>
<path fill="#CACDCF" opacity="1.000000" stroke="none" 
	d="
M245.055969,173.818924 
	C238.519394,180.477310 231.982819,187.135681 224.792603,193.957367 
	C217.746048,200.239777 211.416397,206.427582 204.908112,212.421448 
	C203.569626,213.654160 201.563904,214.162369 199.900360,214.998230 
	C199.934967,214.991928 199.955978,215.059448 200.180359,214.700287 
	C199.956039,214.208481 199.507370,214.075821 199.030762,213.971436 
	C199.002853,213.999695 199.075714,213.967834 199.327972,213.704559 
	C199.370911,213.007599 199.161575,212.573914 199.105194,211.870956 
	C199.592697,211.367996 199.927277,211.134308 200.713165,211.116135 
	C201.789764,210.368530 202.415070,209.405411 203.040375,208.442307 
	C213.480652,198.175232 223.922577,187.909836 234.360214,177.640091 
	C237.721375,174.332993 241.071259,171.014435 244.746185,167.786682 
	C246.053970,167.618729 247.041870,167.365204 248.235306,167.231613 
	C248.440826,167.351547 248.916611,167.341644 248.916595,167.341644 
	C249.417526,168.890350 249.918457,170.439041 250.060043,172.211395 
	C247.334518,170.151047 245.768112,170.551376 245.055969,173.818924 
z"/>
<path fill="#D3D5D7" opacity="1.000000" stroke="none" 
	d="
M200.261841,210.900604 
	C199.927277,211.134308 199.592697,211.367996 198.761902,211.704956 
	C197.857132,211.844009 197.448608,211.879822 197.020447,211.952728 
	C197.000809,211.989807 197.074615,211.949921 197.229645,211.572418 
	C196.939819,211.105057 196.494934,211.015213 196.028748,210.964050 
	C196.007446,211.002731 196.063354,210.931839 196.195038,210.530548 
	C195.867035,210.096634 195.407379,210.064041 194.973480,210.016083 
	C194.999268,210.000732 194.968567,210.052292 195.188736,209.690796 
	C194.962051,209.198502 194.515213,209.067703 194.032318,208.963013 
	C193.996292,208.989136 194.074615,208.949921 194.229645,208.572418 
	C193.939819,208.105057 193.494934,208.015213 193.030457,207.964569 
	C193.010849,208.003754 193.063202,207.931763 193.194672,207.530594 
	C192.866669,207.096756 192.407181,207.064087 191.973160,207.016174 
	C191.998627,207.000916 191.971985,207.053955 192.174652,206.655548 
	C191.900223,206.180756 191.423141,206.104401 190.972412,206.014618 
	C190.998779,206.001221 190.971985,206.053955 191.174652,205.655533 
	C190.900223,205.180740 190.423141,205.104385 189.972412,205.014618 
	C189.998779,205.001221 189.971985,205.053955 190.174652,204.655533 
	C189.900223,204.180756 189.423141,204.104385 188.972412,204.014618 
	C188.998779,204.001221 188.971985,204.053955 189.174652,203.655533 
	C188.900223,203.180756 188.423141,203.104385 187.972595,203.014679 
	C187.999146,203.001328 187.968201,203.052078 188.188202,202.690704 
	C187.961578,202.198517 187.514969,202.067703 187.032318,201.963013 
	C186.996292,201.989120 187.074615,201.949921 187.229645,201.572418 
	C186.939819,201.105072 186.494934,201.015228 186.027496,200.960251 
	C186.004944,200.995102 186.074615,200.949921 186.229645,200.572418 
	C185.939819,200.105072 185.494934,200.015228 185.030457,199.964569 
	C185.010849,200.003754 185.063202,199.931763 185.194672,199.530594 
	C184.866669,199.096756 184.407181,199.064087 183.973160,199.016174 
	C183.998627,199.000916 183.971985,199.053955 184.174652,198.655533 
	C183.900223,198.180756 183.423141,198.104385 182.972748,198.014435 
	C182.999435,198.000870 182.963272,198.048645 183.236298,197.697067 
	C182.656662,196.909225 181.804016,196.472977 180.975403,196.018677 
	C180.999466,196.000610 180.968567,196.052292 181.188736,195.690796 
	C180.962051,195.198502 180.515213,195.067703 180.033875,194.967041 
	C179.999390,194.997162 180.069534,194.941055 180.208145,194.543396 
	C179.887634,194.097107 179.428528,194.048492 178.969406,193.999878 
	C178.969406,193.999878 179.008545,193.996796 179.262222,193.659119 
	C178.665482,192.880569 177.815048,192.439682 176.964630,191.998810 
	C176.964630,191.998810 177.008865,191.992554 177.199387,191.615570 
	C176.914200,191.156601 176.438507,191.074615 175.962799,190.992630 
	C175.962799,190.992630 176.009903,190.990112 176.199905,190.614349 
	C175.914200,190.156601 175.438507,190.074615 174.962799,189.992630 
	C174.962799,189.992630 175.009903,189.990112 175.199905,189.614349 
	C174.914200,189.156601 174.438507,189.074615 173.962799,188.992630 
	C173.962799,188.992630 174.009903,188.990112 174.199905,188.614349 
	C173.914200,188.156601 173.438507,188.074615 172.962799,187.992630 
	C172.962799,187.992630 173.008026,187.992432 173.262024,187.704163 
	C172.680527,186.434616 171.845032,185.453339 171.009552,184.472076 
	C170.548340,183.406784 170.087112,182.341492 169.386276,181.156860 
	C170.640228,177.924850 171.865662,178.774307 172.981308,182.015686 
	C173.655792,183.180618 174.326843,183.626633 174.997910,184.072647 
	C174.997910,184.072647 174.998825,184.002029 174.820129,184.388672 
	C175.093307,184.874130 175.545197,184.972961 175.997070,185.071793 
	C175.997070,185.071793 175.998413,185.001602 175.819916,185.388458 
	C176.093307,185.874130 176.545197,185.972961 176.997070,186.071793 
	C176.997070,186.071793 176.998413,186.001602 176.819916,186.388458 
	C177.093307,186.874146 177.545197,186.972977 177.997070,187.071808 
	C177.997070,187.071793 177.998413,187.001602 177.819916,187.388443 
	C178.093307,187.874115 178.545197,187.972946 178.997070,188.071777 
	C178.997070,188.071793 178.998413,188.001602 178.819916,188.388458 
	C179.093307,188.874130 179.545197,188.972961 179.997070,189.071793 
	C179.997070,189.071793 179.998413,189.001602 179.819916,189.388458 
	C180.093307,189.874130 180.545197,189.972961 180.997070,190.071793 
	C180.997070,190.071793 180.998413,190.001602 180.819916,190.388458 
	C181.093307,190.874130 181.545197,190.972961 181.997070,191.071793 
	C181.997070,191.071793 181.998413,191.001602 181.819916,191.388458 
	C182.093307,191.874130 182.545197,191.972961 182.997070,192.071793 
	C182.997070,192.071793 182.998413,192.001602 182.819916,192.388458 
	C183.093307,192.874130 183.545197,192.972961 183.997070,193.071793 
	C183.997070,193.071793 183.998413,193.001602 183.819916,193.388458 
	C184.093307,193.874130 184.545197,193.972961 184.997070,194.071793 
	C184.997070,194.071793 184.998413,194.001602 184.819916,194.388458 
	C185.093307,194.874130 185.545197,194.972961 185.997070,195.071793 
	C185.997070,195.071793 185.998413,195.001602 185.819916,195.388443 
	C186.093307,195.874115 186.545197,195.972946 186.997070,196.071777 
	C186.997070,196.071793 186.998413,196.001602 186.819916,196.388458 
	C187.093307,196.874130 187.545197,196.972961 187.997070,197.071793 
	C187.997070,197.071793 187.998413,197.001602 187.819916,197.388458 
	C188.093307,197.874130 188.545197,197.972961 188.997070,198.071793 
	C188.997070,198.071793 188.998413,198.001602 188.819916,198.388458 
	C189.093307,198.874130 189.545197,198.972961 189.997070,199.071793 
	C189.997070,199.071793 189.998413,199.001602 189.819916,199.388458 
	C190.093307,199.874130 190.545197,199.972961 190.997070,200.071793 
	C190.997070,200.071793 190.998413,200.001602 190.819916,200.388458 
	C191.093307,200.874146 191.545197,200.972977 191.997070,201.071808 
	C191.997070,201.071793 191.998413,201.001602 191.819916,201.388458 
	C192.093307,201.874130 192.545197,201.972961 192.997070,202.071793 
	C192.997070,202.071793 192.998413,202.001602 192.819916,202.388458 
	C193.093307,202.874130 193.545197,202.972961 193.997070,203.071793 
	C193.997070,203.071793 193.998413,203.001602 193.819916,203.388443 
	C194.093307,203.874115 194.545197,203.972946 194.997070,204.071777 
	C194.997070,204.071793 194.998413,204.001602 194.819916,204.388458 
	C195.093307,204.874130 195.545197,204.972961 195.997070,205.071793 
	C195.997070,205.071793 195.998413,205.001602 195.819916,205.388458 
	C196.093307,205.874130 196.545197,205.972961 196.997070,206.071793 
	C196.997070,206.071793 196.998413,206.001602 196.819916,206.388458 
	C197.093307,206.874130 197.545197,206.972961 197.997070,207.071793 
	C197.997070,207.071793 197.997650,207.001022 197.719559,207.250824 
	C197.905685,207.977127 198.369904,208.453644 199.101440,208.952179 
	C199.547562,208.970795 199.726334,208.967377 199.905121,208.963974 
	C199.905121,208.963974 200.084473,209.023209 200.129105,209.351410 
	C200.203110,210.086594 200.232483,210.493607 200.261841,210.900604 
z"/>
<path fill="#252624" opacity="1.000000" stroke="none" 
	d="
M159.842285,189.975876 
	C157.552307,193.051346 154.913620,196.216278 151.863556,199.793259 
	C150.964386,200.802155 150.476608,201.399017 149.988831,201.995880 
	C149.071518,202.807129 148.154236,203.618393 146.889954,204.761536 
	C146.542938,205.093384 146.102692,205.211517 146.055023,204.849915 
	C145.978699,204.246857 145.950043,204.005402 145.921371,203.763931 
	C150.445435,199.197739 154.969513,194.631531 159.842285,189.975876 
z"/>
<path fill="#1A1D20" opacity="1.000000" stroke="none" 
	d="
M133.425186,223.802216 
	C132.667831,222.610764 135.533737,219.767593 130.933670,220.770294 
	C130.383194,220.542130 130.301758,220.017502 130.825241,218.983093 
	C131.430145,218.473312 131.632050,218.514557 131.632050,218.514557 
	C131.632050,218.514557 131.341431,218.299454 131.341431,218.299454 
	C131.581589,218.056778 131.821747,217.814102 132.573120,217.541382 
	C133.268143,217.790817 133.451935,218.070267 134.134216,218.843353 
	C135.092484,219.253983 135.552246,219.170959 136.012024,219.087952 
	C137.870880,217.443146 139.729736,215.798355 141.588593,214.153549 
	C141.981995,214.584305 142.375397,215.015060 142.768784,215.445801 
	C139.767868,218.235733 136.766953,221.025665 133.425186,223.802216 
z"/>
<path fill="#27292D" opacity="1.000000" stroke="none" 
	d="
M245.388596,173.852692 
	C245.768112,170.551376 247.334518,170.151047 250.141815,172.819611 
	C251.660065,174.225342 252.737213,175.246506 254.073853,176.550095 
	C254.333374,176.832504 254.440750,177.004105 254.665451,177.247772 
	C254.807083,178.073441 254.724014,178.655441 254.163986,179.122025 
	C253.112808,178.998444 252.538605,178.990280 251.964386,178.982101 
	C251.964386,178.982101 252.006454,178.994675 252.199432,178.614532 
	C251.916138,178.149551 251.439850,178.064697 250.963577,177.979843 
	C250.963577,177.979843 251.005997,177.993973 251.199203,177.614197 
	C250.916138,177.149551 250.439850,177.064697 249.963577,176.979843 
	C249.963577,176.979843 250.009232,176.993546 250.029312,176.439835 
	C249.176392,175.931274 248.303375,175.976425 247.430374,176.021576 
	C247.430374,176.021591 247.397308,176.013977 247.382690,175.996674 
	C247.766266,175.421478 248.164444,174.863586 248.562622,174.305695 
	C247.615494,174.165939 246.668350,174.026199 245.388596,173.852692 
z"/>
<path fill="#25282B" opacity="1.000000" stroke="none" 
	d="
M254.440750,177.004089 
	C254.440750,177.004105 254.333374,176.832504 254.327423,176.808472 
	C254.493210,176.329712 254.664932,175.875015 254.923706,174.717453 
	C255.668884,173.651031 256.326996,173.287460 256.985138,172.923889 
	C257.046021,172.106461 257.106873,171.289047 257.521942,169.926697 
	C257.911224,168.903320 257.946289,168.424881 257.981384,167.946426 
	C258.018921,167.198395 258.056458,166.450363 258.413086,165.366943 
	C258.732147,165.031555 259.037201,165.037125 259.037201,165.037125 
	C259.037201,165.037125 259.031555,165.492706 259.019043,166.071381 
	C259.364441,167.431519 259.722382,168.212982 260.327271,169.212524 
	C260.714569,170.292816 260.854950,171.155045 260.997498,172.007751 
	C260.999634,171.998215 261.015717,171.995071 260.684753,172.011414 
	C260.133789,172.048279 259.913818,172.068787 259.387604,172.279724 
	C258.563354,173.919250 258.045410,175.368362 257.674133,176.407104 
	C256.476196,176.628281 255.458466,176.816193 254.440750,177.004089 
z"/>
<path fill="#D3D5D7" opacity="1.000000" stroke="none" 
	d="
M146.102692,205.211517 
	C146.102692,205.211517 146.542938,205.093384 146.765625,205.044876 
	C150.156006,208.222153 146.157120,207.959991 144.586243,209.116150 
	C144.322571,208.422928 144.472961,207.694626 145.024414,206.565826 
	C145.651215,205.847412 145.876953,205.529465 146.102692,205.211517 
z"/>
<path fill="#0F1214" opacity="1.000000" stroke="none" 
	d="
M200.713165,211.116119 
	C200.232483,210.493607 200.203110,210.086594 200.220261,209.376068 
	C200.999802,209.018326 201.732819,208.964096 202.753113,208.676086 
	C202.415070,209.405411 201.789764,210.368530 200.713165,211.116119 
z"/>
<path fill="#0F1214" opacity="1.000000" stroke="none" 
	d="
M248.029785,167.111679 
	C247.041870,167.365204 246.053970,167.618729 244.752502,167.457794 
	C245.512344,166.487610 246.585724,165.931870 247.829971,165.955841 
	C248.010483,166.727585 248.020126,166.919632 248.029785,167.111679 
z"/>
<path fill="#0E1012" opacity="1.000000" stroke="none" 
	d="
M128.212524,223.732941 
	C127.904022,224.074387 127.722198,224.123291 127.262436,224.121475 
	C127.619904,223.123749 128.255310,222.176758 129.228821,221.606750 
	C129.157684,222.469284 128.748444,222.954834 128.212524,223.732941 
z"/>
<path fill="#D6D8DA" opacity="1.000000" stroke="none" 
	d="
M131.382141,218.293030 
	C131.341431,218.299454 131.632050,218.514557 131.632050,218.514557 
	C131.632050,218.514557 131.430145,218.473312 131.367218,218.399567 
	C131.304291,218.325836 131.422867,218.286606 131.382141,218.293030 
z"/>
<path fill="#2C2E31" opacity="1.000000" stroke="none" 
	d="
M256.666687,173.110519 
	C256.326996,173.287460 255.668884,173.651031 254.704102,174.022217 
	C255.047745,173.785614 255.697998,173.541382 256.666687,173.110519 
z"/>
<path fill="#252624" opacity="1.000000" stroke="none" 
	d="
M164.430573,185.385254 
	C164.221558,185.815048 163.729584,186.290192 163.071533,186.970673 
	C163.319519,186.594193 163.733566,186.012405 164.430573,185.385254 
z"/>
<path fill="#27292D" opacity="1.000000" stroke="none" 
	d="
M174.979614,183.764404 
	C174.326843,183.626633 173.655792,183.180618 173.037476,182.348663 
	C173.713928,182.460541 174.337631,182.958359 174.979614,183.764404 
z"/>
<path fill="#2C2E31" opacity="1.000000" stroke="none" 
	d="
M259.062195,164.685562 
	C259.037201,165.037125 258.732147,165.031555 258.579590,165.028961 
	C258.501678,164.476822 258.576324,163.927277 258.820129,163.153793 
	C259.021973,163.397903 259.054596,163.865952 259.062195,164.685562 
z"/>
<path fill="#0E1012" opacity="1.000000" stroke="none" 
	d="
M146.055023,204.849915 
	C145.876953,205.529465 145.651215,205.847412 145.201721,206.364594 
	C145.024017,205.803177 145.070084,205.042511 145.518768,204.022888 
	C145.950043,204.005402 145.978699,204.246857 146.055023,204.849915 
z"/>
<path fill="#2C2E31" opacity="1.000000" stroke="none" 
	d="
M257.873474,168.162155 
	C257.946289,168.424881 257.911224,168.903320 257.757080,169.587341 
	C257.680573,169.321228 257.723083,168.849564 257.873474,168.162155 
z"/>
<path fill="#27292D" opacity="1.000000" stroke="none" 
	d="
M198.834122,208.930161 
	C198.369904,208.453644 197.905685,207.977127 197.684174,207.251266 
	C198.275223,207.148178 198.623566,207.294449 198.958710,207.946381 
	C198.945511,208.452042 198.834122,208.930161 198.834122,208.930161 
z"/>
<path fill="#27292D" opacity="1.000000" stroke="none" 
	d="
M177.978806,186.769669 
	C177.545197,186.972977 177.093307,186.874146 176.784821,186.389114 
	C177.272324,186.157776 177.616440,186.312653 177.978806,186.769669 
z"/>
<path fill="#CACDCF" opacity="1.000000" stroke="none" 
	d="
M199.101440,208.952179 
	C198.834122,208.930161 198.945511,208.452042 199.054535,208.231903 
	C199.488739,208.055222 199.724869,208.223526 199.888550,208.740295 
	C199.726334,208.967377 199.547562,208.970795 199.101440,208.952179 
z"/>
<path fill="#27292D" opacity="1.000000" stroke="none" 
	d="
M197.978806,206.769653 
	C197.545197,206.972961 197.093307,206.874130 196.784821,206.389099 
	C197.272324,206.157791 197.616425,206.312653 197.978806,206.769653 
z"/>
<path fill="#27292D" opacity="1.000000" stroke="none" 
	d="
M196.978806,205.769653 
	C196.545197,205.972961 196.093307,205.874130 195.784821,205.389099 
	C196.272308,205.157791 196.616425,205.312668 196.978806,205.769653 
z"/>
<path fill="#27292D" opacity="1.000000" stroke="none" 
	d="
M176.978806,185.769653 
	C176.545197,185.972961 176.093307,185.874130 175.784821,185.389099 
	C176.272324,185.157791 176.616425,185.312653 176.978806,185.769653 
z"/>
<path fill="#27292D" opacity="1.000000" stroke="none" 
	d="
M175.978806,184.769669 
	C175.545197,184.972961 175.093307,184.874130 174.784821,184.389114 
	C175.272308,184.157791 175.616425,184.312668 175.978806,184.769669 
z"/>
<path fill="#0E1012" opacity="1.000000" stroke="none" 
	d="
M126.753754,223.887024 
	C126.897141,224.324127 126.717804,224.661133 126.237778,225.019104 
	C126.101730,224.622360 126.266373,224.204651 126.753754,223.887024 
z"/>
<path fill="#2C2E31" opacity="1.000000" stroke="none" 
	d="
M248.235306,167.231613 
	C248.020126,166.919632 248.010483,166.727585 248.003662,166.246994 
	C248.290237,166.215775 248.573975,166.473099 248.887177,167.036041 
	C248.916611,167.341644 248.440826,167.351547 248.235306,167.231613 
z"/>
<path fill="#27292D" opacity="1.000000" stroke="none" 
	d="
M189.978806,198.769653 
	C189.545197,198.972961 189.093307,198.874130 188.784821,198.389099 
	C189.272308,198.157791 189.616425,198.312668 189.978806,198.769653 
z"/>
<path fill="#27292D" opacity="1.000000" stroke="none" 
	d="
M181.978806,190.769653 
	C181.545197,190.972961 181.093307,190.874130 180.784821,190.389099 
	C181.272324,190.157776 181.616440,190.312653 181.978806,190.769653 
z"/>
<path fill="#27292D" opacity="1.000000" stroke="none" 
	d="
M183.978806,192.769653 
	C183.545197,192.972961 183.093307,192.874130 182.784821,192.389099 
	C183.272324,192.157791 183.616425,192.312653 183.978806,192.769653 
z"/>
<path fill="#27292D" opacity="1.000000" stroke="none" 
	d="
M184.978806,193.769653 
	C184.545197,193.972961 184.093307,193.874130 183.784821,193.389099 
	C184.272324,193.157776 184.616440,193.312653 184.978806,193.769653 
z"/>
<path fill="#27292D" opacity="1.000000" stroke="none" 
	d="
M185.978806,194.769653 
	C185.545197,194.972961 185.093307,194.874130 184.784821,194.389099 
	C185.272324,194.157776 185.616440,194.312653 185.978806,194.769653 
z"/>
<path fill="#27292D" opacity="1.000000" stroke="none" 
	d="
M180.978806,189.769653 
	C180.545197,189.972961 180.093307,189.874130 179.784821,189.389099 
	C180.272324,189.157791 180.616425,189.312653 180.978806,189.769653 
z"/>
<path fill="#27292D" opacity="1.000000" stroke="none" 
	d="
M186.978806,195.769653 
	C186.545197,195.972946 186.093307,195.874115 185.784821,195.389099 
	C186.272324,195.157791 186.616425,195.312653 186.978806,195.769653 
z"/>
<path fill="#27292D" opacity="1.000000" stroke="none" 
	d="
M179.978806,188.769653 
	C179.545197,188.972961 179.093307,188.874130 178.784821,188.389099 
	C179.272324,188.157791 179.616425,188.312653 179.978806,188.769653 
z"/>
<path fill="#27292D" opacity="1.000000" stroke="none" 
	d="
M187.978806,196.769653 
	C187.545197,196.972961 187.093307,196.874130 186.784821,196.389099 
	C187.272324,196.157791 187.616425,196.312653 187.978806,196.769653 
z"/>
<path fill="#27292D" opacity="1.000000" stroke="none" 
	d="
M188.978806,197.769653 
	C188.545197,197.972961 188.093307,197.874130 187.784821,197.389099 
	C188.272324,197.157776 188.616440,197.312653 188.978806,197.769653 
z"/>
<path fill="#27292D" opacity="1.000000" stroke="none" 
	d="
M195.978806,204.769653 
	C195.545197,204.972961 195.093307,204.874130 194.784821,204.389099 
	C195.272324,204.157776 195.616440,204.312653 195.978806,204.769653 
z"/>
<path fill="#27292D" opacity="1.000000" stroke="none" 
	d="
M190.978806,199.769653 
	C190.545197,199.972961 190.093307,199.874130 189.784821,199.389099 
	C190.272324,199.157791 190.616425,199.312653 190.978806,199.769653 
z"/>
<path fill="#27292D" opacity="1.000000" stroke="none" 
	d="
M178.978806,187.769653 
	C178.545197,187.972946 178.093307,187.874115 177.784821,187.389099 
	C178.272324,187.157776 178.616440,187.312653 178.978806,187.769653 
z"/>
<path fill="#27292D" opacity="1.000000" stroke="none" 
	d="
M191.978806,200.769669 
	C191.545197,200.972977 191.093307,200.874146 190.784821,200.389114 
	C191.272324,200.157791 191.616425,200.312653 191.978806,200.769669 
z"/>
<path fill="#27292D" opacity="1.000000" stroke="none" 
	d="
M192.978806,201.769653 
	C192.545197,201.972961 192.093307,201.874130 191.784821,201.389099 
	C192.272324,201.157776 192.616440,201.312653 192.978806,201.769653 
z"/>
<path fill="#27292D" opacity="1.000000" stroke="none" 
	d="
M193.978806,202.769653 
	C193.545197,202.972961 193.093307,202.874130 192.784821,202.389099 
	C193.272324,202.157791 193.616425,202.312653 193.978806,202.769653 
z"/>
<path fill="#27292D" opacity="1.000000" stroke="none" 
	d="
M194.978806,203.769653 
	C194.545197,203.972946 194.093307,203.874115 193.784821,203.389099 
	C194.272324,203.157791 194.616425,203.312653 194.978806,203.769653 
z"/>
<path fill="#27292D" opacity="1.000000" stroke="none" 
	d="
M182.978806,191.769669 
	C182.545197,191.972961 182.093307,191.874130 181.784821,191.389114 
	C182.272308,191.157791 182.616425,191.312668 182.978806,191.769669 
z"/>
<path fill="#2C2E31" opacity="1.000000" stroke="none" 
	d="
M155.081924,200.032913 
	C158.666061,196.265518 162.250198,192.498123 165.834335,188.730728 
	C166.315155,189.170074 166.795959,189.609421 167.276779,190.048767 
	C163.763092,193.679214 160.249390,197.309662 156.321457,200.847137 
	C155.632126,200.513733 155.357025,200.273331 155.081924,200.032913 
z"/>
<path fill="#232629" opacity="1.000000" stroke="none" 
	d="
M170.627686,184.529495 
	C171.845032,185.453339 172.680527,186.434616 173.257599,187.726349 
	C171.487732,187.826736 169.976273,187.616669 167.850998,187.321289 
	C168.711060,186.339294 169.478439,185.463104 170.627686,184.529495 
z"/>
<path fill="#1A1D20" opacity="1.000000" stroke="none" 
	d="
M154.848602,200.144409 
	C155.357025,200.273331 155.632126,200.513733 156.022644,201.007416 
	C154.953506,201.791168 153.768967,202.321655 152.880447,202.250244 
	C153.245468,201.485947 153.314438,201.323532 153.383423,201.161118 
	C153.794037,200.859375 154.204666,200.557632 154.848602,200.144409 
z"/>
<path fill="#D3D5D7" opacity="1.000000" stroke="none" 
	d="
M153.097748,201.035583 
	C153.314438,201.323532 153.245468,201.485947 152.978607,201.824127 
	C152.082748,201.999420 151.384781,201.998947 150.337814,201.997177 
	C150.476608,201.399017 150.964386,200.802155 151.724762,200.096375 
	C152.268921,200.294968 152.540497,200.602509 153.097748,201.035583 
z"/>
<path fill="#A9ACAE" opacity="1.000000" stroke="none" 
	d="
M176.913223,195.550140 
	C176.913223,195.550140 176.773071,195.526031 176.711426,195.493073 
	C177.111435,195.333618 177.573090,195.207123 178.726593,195.110611 
	C179.635452,195.074097 179.852493,195.007584 180.069534,194.941055 
	C180.069534,194.941055 179.999390,194.997162 179.887878,195.237762 
	C179.776428,195.683350 179.776459,195.888367 179.411957,196.066620 
	C178.336029,195.876648 177.624619,195.713394 176.913223,195.550140 
z"/>
<path fill="#232629" opacity="1.000000" stroke="none" 
	d="
M176.878769,192.347336 
	C177.815048,192.439682 178.665482,192.880569 179.258331,193.678345 
	C178.264801,193.588791 177.528854,193.142334 176.878769,192.347336 
z"/>
<path fill="#D3D5D7" opacity="1.000000" stroke="none" 
	d="
M135.784668,218.824081 
	C135.552246,219.170959 135.092484,219.253983 134.448792,219.015442 
	C134.695679,218.649338 135.126480,218.604782 135.784668,218.824081 
z"/>
<path fill="#232629" opacity="1.000000" stroke="none" 
	d="
M175.887054,191.339478 
	C176.438507,191.074615 176.914200,191.156601 177.198486,191.637878 
	C176.608490,191.920227 176.209885,191.803268 175.887054,191.339478 
z"/>
<path fill="#232629" opacity="1.000000" stroke="none" 
	d="
M180.208145,194.543396 
	C179.852493,195.007584 179.635452,195.074097 179.083374,195.079926 
	C178.694122,194.829544 178.639893,194.639847 178.777542,194.225006 
	C179.428528,194.048492 179.887634,194.097107 180.208145,194.543396 
z"/>
<path fill="#232629" opacity="1.000000" stroke="none" 
	d="
M174.887054,190.339478 
	C175.438507,190.074615 175.914200,190.156601 176.198486,190.637894 
	C175.608475,190.920242 175.209885,190.803284 174.887054,190.339478 
z"/>
<path fill="#232629" opacity="1.000000" stroke="none" 
	d="
M173.887054,189.339478 
	C174.438507,189.074615 174.914200,189.156601 175.198486,189.637878 
	C174.608490,189.920227 174.209885,189.803268 173.887054,189.339478 
z"/>
<path fill="#232629" opacity="1.000000" stroke="none" 
	d="
M172.887054,188.339478 
	C173.438507,188.074615 173.914200,188.156601 174.198486,188.637878 
	C173.608490,188.920227 173.209885,188.803268 172.887054,188.339478 
z"/>
<path fill="#232629" opacity="1.000000" stroke="none" 
	d="
M199.865753,215.004517 
	C201.563904,214.162369 203.569626,213.654160 204.908112,212.421448 
	C211.416397,206.427582 217.746048,200.239777 224.474640,194.090607 
	C224.823364,194.390305 224.986176,194.872696 224.827972,195.027924 
	C217.100113,202.609985 209.344620,210.163895 201.266815,217.842041 
	C200.941422,217.963135 200.986664,218.015488 201.001770,217.656204 
	C200.633179,216.532776 200.249466,215.768631 199.865753,215.004517 
z"/>
<path fill="#2B2D30" opacity="1.000000" stroke="none" 
	d="
M260.080322,168.994446 
	C259.722382,168.212982 259.364441,167.431519 259.010864,166.299057 
	C259.931488,165.274323 260.847687,164.600586 261.471954,164.141556 
	C262.167603,165.121964 262.947876,166.221619 263.947449,167.582458 
	C263.829407,168.422821 263.492065,169.001984 262.784668,169.696350 
	C261.636505,169.539169 260.858398,169.266815 260.080322,168.994446 
z"/>
<path fill="#2B2D30" opacity="1.000000" stroke="none" 
	d="
M267.480408,150.981125 
	C266.975616,151.825668 266.435608,152.727127 265.895599,153.628586 
	C265.566010,153.394104 265.236389,153.159622 264.906799,152.925140 
	C265.515167,152.260757 266.123566,151.596390 267.118835,150.928772 
	C267.505737,150.925537 267.445190,151.038040 267.480408,150.981125 
z"/>
<path fill="#2B2D30" opacity="1.000000" stroke="none" 
	d="
M262.984619,158.769104 
	C262.476837,158.998260 262.008636,158.945755 261.540405,158.893265 
	C261.657440,158.498779 261.774475,158.104294 261.891541,157.709824 
	C262.269104,157.969040 262.646637,158.228256 262.984619,158.769104 
z"/>
<path fill="#2B2D30" opacity="1.000000" stroke="none" 
	d="
M263.995880,149.994156 
	C263.565643,150.463058 263.140228,150.938553 262.714813,151.414032 
	C262.559662,151.229782 262.404480,151.045532 262.249329,150.861282 
	C262.655914,150.594254 263.062500,150.327225 263.741211,150.036346 
	C264.013367,150.012497 264.000702,150.000732 263.995880,149.994156 
z"/>
<path fill="#25282B" opacity="1.000000" stroke="none" 
	d="
M263.886475,164.423462 
	C264.021942,164.125595 264.216461,164.090805 264.706116,164.028320 
	C264.809326,164.462906 264.617462,164.925217 264.425598,165.387527 
	C264.265594,165.153854 264.105591,164.920197 263.886475,164.423462 
z"/>
<path fill="#E2E4E6" opacity="1.000000" stroke="none" 
	d="
M176.970596,195.913696 
	C177.624619,195.713394 178.336029,195.876648 179.714752,196.195023 
	C180.577576,196.250885 180.773071,196.151596 180.968567,196.052292 
	C180.968567,196.052292 180.999466,196.000610 180.878815,196.364532 
	C181.493195,197.168503 182.228226,197.608582 182.963272,198.048645 
	C182.963272,198.048645 182.999435,198.000870 182.887848,198.360214 
	C183.174835,198.831024 183.573410,198.942490 183.971985,199.053955 
	C183.971985,199.053955 183.998627,199.000916 183.823700,199.308777 
	C183.734192,199.818405 183.819611,200.020187 183.936401,200.610474 
	C183.964020,201.767151 183.960281,202.535355 183.956543,203.303558 
	C181.647018,200.961456 179.337494,198.619354 176.970596,195.913696 
z"/>
<path fill="#E2E4E6" opacity="1.000000" stroke="none" 
	d="
M190.949249,210.292908 
	C189.000977,208.400604 187.052704,206.508301 185.160309,204.201965 
	C185.736465,203.556610 186.256760,203.325287 187.079712,203.222183 
	C187.577652,203.250946 187.772934,203.151505 187.968201,203.052078 
	C187.968201,203.052078 187.999146,203.001328 187.887695,203.360443 
	C188.174835,203.831024 188.573410,203.942490 188.971985,204.053955 
	C188.971985,204.053955 188.998779,204.001221 188.887512,204.360382 
	C189.174835,204.831009 189.573410,204.942474 189.971985,205.053955 
	C189.971985,205.053955 189.998779,205.001221 189.887512,205.360382 
	C190.174835,205.831024 190.573410,205.942490 190.971985,206.053955 
	C190.971985,206.053955 190.998779,206.001221 190.887512,206.360382 
	C191.174835,206.831024 191.573410,206.942490 191.971985,207.053955 
	C191.971985,207.053955 191.998627,207.000916 191.823700,207.308777 
	C191.734192,207.818405 191.819611,208.020187 191.797882,208.487122 
	C191.443573,209.265823 191.196411,209.779373 190.949249,210.292908 
z"/>
<path fill="#A9ACAE" opacity="1.000000" stroke="none" 
	d="
M195.705353,215.049561 
	C195.171875,214.625092 194.638397,214.200623 194.157898,213.277679 
	C194.442596,212.260452 194.674301,211.741699 195.213745,211.223282 
	C195.702087,211.126373 195.882721,211.029114 196.063354,210.931839 
	C196.063354,210.931839 196.007446,211.002731 195.981995,211.290268 
	C196.329239,211.701843 196.701920,211.825882 197.074615,211.949921 
	C197.074615,211.949921 197.000809,211.989807 196.974945,212.293732 
	C197.657974,213.054367 198.366837,213.511108 199.075714,213.967834 
	C199.075714,213.967834 199.002853,213.999695 198.889297,214.241608 
	C198.776001,214.686813 198.776245,214.890106 198.389145,215.062714 
	C197.236313,215.037872 196.470825,215.043716 195.705353,215.049561 
z"/>
<path fill="#E2E4E6" opacity="1.000000" stroke="none" 
	d="
M195.929382,215.361328 
	C196.470825,215.043716 197.236313,215.037872 198.687912,215.189636 
	C199.568024,215.251282 199.761993,215.155365 199.955978,215.059448 
	C199.955978,215.059448 199.934967,214.991928 199.900360,214.998215 
	C200.249466,215.768631 200.633179,216.532776 201.031006,217.637695 
	C199.414551,217.210022 197.783966,216.441559 195.929382,215.361328 
z"/>
<path fill="#A9ACAE" opacity="1.000000" stroke="none" 
	d="
M186.777039,203.093964 
	C186.256760,203.325287 185.736465,203.556610 184.963715,203.920807 
	C184.411057,204.075684 184.183868,203.957428 183.993134,203.501221 
	C183.960281,202.535355 183.964020,201.767151 184.244263,200.611023 
	C184.701569,200.125992 184.882385,200.028885 185.063202,199.931763 
	C185.063202,199.931763 185.010849,200.003754 184.983704,200.290771 
	C185.329239,200.701843 185.701920,200.825882 186.074615,200.949921 
	C186.074615,200.949921 186.004944,200.995102 185.980743,201.286453 
	C186.329239,201.701843 186.701920,201.825882 187.074615,201.949921 
	C187.074615,201.949921 186.996292,201.989120 186.886444,202.233917 
	C186.776733,202.683792 186.776886,202.888870 186.777039,203.093964 
z"/>
<path fill="#A9ACAE" opacity="1.000000" stroke="none" 
	d="
M190.987228,210.492767 
	C191.196411,209.779373 191.443573,209.265823 192.105743,208.487686 
	C192.701569,208.125992 192.882385,208.028885 193.063202,207.931763 
	C193.063202,207.931763 193.010849,208.003754 192.983704,208.290771 
	C193.329239,208.701843 193.701920,208.825882 194.074615,208.949921 
	C194.074615,208.949921 193.996292,208.989136 193.886337,209.233734 
	C193.776428,209.683350 193.776459,209.888367 193.512177,210.201080 
	C192.736404,210.557602 192.224930,210.806427 191.713455,211.055237 
	C191.409851,211.075165 191.180435,210.954285 190.987228,210.492767 
z"/>
<path fill="#E2E4E6" opacity="1.000000" stroke="none" 
	d="
M191.893127,211.316376 
	C192.224930,210.806427 192.736404,210.557602 193.814972,210.329468 
	C194.577576,210.250885 194.773071,210.151596 194.968567,210.052292 
	C194.968567,210.052292 194.999268,210.000732 194.824280,210.309036 
	C194.734863,210.819199 194.820435,211.021072 194.906006,211.222931 
	C194.674301,211.741699 194.442596,212.260452 194.075592,213.029739 
	C193.317795,212.712677 192.695297,212.145096 191.893127,211.316376 
z"/>
<path fill="#D3D5D7" opacity="1.000000" stroke="none" 
	d="
M251.901367,179.312637 
	C252.538605,178.990280 253.112808,178.998444 254.177444,179.107346 
	C254.667862,179.208084 254.657196,179.215820 254.657196,179.215820 
	C255.939667,180.781494 257.222137,182.347168 259.129120,184.675232 
	C259.949463,182.026840 260.431030,180.472076 260.912628,178.917328 
	C261.382080,179.080856 261.851562,179.244400 262.321014,179.407928 
	C261.262634,182.166595 260.204224,184.925247 258.865631,187.477203 
	C258.395752,187.044662 258.197845,186.826233 257.822083,186.473328 
	C257.454041,186.087158 257.240540,185.856903 256.833160,185.487045 
	C256.455872,185.088440 256.241882,184.857773 255.833496,184.487427 
	C255.456253,184.088608 255.242447,183.858185 254.834290,183.488342 
	C254.475143,183.097931 254.272629,182.882187 253.880447,182.541260 
	C253.088074,181.477921 252.463211,180.560547 251.901367,179.312637 
z"/>
<path fill="#CACDCF" opacity="1.000000" stroke="none" 
	d="
M255.020447,178.942780 
	C254.657196,179.215820 254.667862,179.208084 254.654404,179.222763 
	C254.724014,178.655441 254.807083,178.073441 254.665451,177.247772 
	C255.458466,176.816193 256.476196,176.628281 257.674133,176.407104 
	C258.045410,175.368362 258.563354,173.919250 259.424133,172.569611 
	C259.574036,173.537430 259.381134,174.405762 259.188202,175.274094 
	C258.989655,176.714371 258.791138,178.154648 258.542419,179.958954 
	C257.343933,179.469788 256.363831,179.069763 255.020447,178.942780 
z"/>
<path fill="#0F1214" opacity="1.000000" stroke="none" 
	d="
M260.327271,169.212524 
	C260.858398,169.266815 261.636505,169.539169 262.646484,169.999481 
	C262.886230,170.541336 262.894073,170.895248 262.588196,171.584656 
	C261.848083,171.952530 261.421692,171.984894 260.995331,172.017273 
	C260.854950,171.155045 260.714569,170.292816 260.327271,169.212524 
z"/>
<path fill="#2B2D30" opacity="1.000000" stroke="none" 
	d="
M260.997498,172.007736 
	C261.421692,171.984894 261.848083,171.952530 262.587219,171.851822 
	C262.468719,172.760132 262.037415,173.736771 261.275635,174.481567 
	C260.968689,173.498184 260.992218,172.746628 261.015717,171.995071 
	C261.015717,171.995071 260.999634,171.998215 260.997498,172.007736 
z"/>
<path fill="#0F1214" opacity="1.000000" stroke="none" 
	d="
M260.684753,172.011414 
	C260.992218,172.746628 260.968689,173.498184 260.972076,174.624817 
	C260.697784,175.046326 260.396576,175.092758 259.641785,175.206650 
	C259.381134,174.405762 259.574036,173.537430 259.730408,172.379181 
	C259.913818,172.068787 260.133789,172.048279 260.684753,172.011414 
z"/>
<path fill="#D3D5D7" opacity="1.000000" stroke="none" 
	d="
M247.763000,176.169632 
	C248.303375,175.976425 249.176392,175.931274 250.040649,176.460815 
	C249.386475,176.796219 248.741058,176.556946 247.763000,176.169632 
z"/>
<path fill="#D3D5D7" opacity="1.000000" stroke="none" 
	d="
M250.913208,178.317200 
	C251.439850,178.064697 251.916138,178.149551 252.206177,178.635437 
	C251.634247,178.909149 251.248535,178.781845 250.913208,178.317200 
z"/>
<path fill="#D3D5D7" opacity="1.000000" stroke="none" 
	d="
M249.913208,177.317184 
	C250.439850,177.064697 250.916138,177.149551 251.206177,177.635406 
	C250.634262,177.909134 250.248550,177.781830 249.913208,177.317184 
z"/>
<path fill="#232629" opacity="1.000000" stroke="none" 
	d="
M199.327972,213.704559 
	C198.366837,213.511108 197.657974,213.054367 196.994583,212.256653 
	C197.448608,211.879822 197.857132,211.844009 198.608963,211.974213 
	C199.161575,212.573914 199.370911,213.007599 199.327972,213.704559 
z"/>
<path fill="#232629" opacity="1.000000" stroke="none" 
	d="
M200.180359,214.700287 
	C199.761993,215.155365 199.568024,215.251282 199.075272,215.220306 
	C198.776245,214.890106 198.776001,214.686813 198.917206,214.213333 
	C199.507370,214.075821 199.956039,214.208481 200.180359,214.700287 
z"/>
<path fill="#232629" opacity="1.000000" stroke="none" 
	d="
M183.236298,197.697067 
	C182.228226,197.608582 181.493195,197.168503 180.854752,196.382584 
	C181.804016,196.472977 182.656662,196.909225 183.236298,197.697067 
z"/>
<path fill="#232629" opacity="1.000000" stroke="none" 
	d="
M195.188736,209.690796 
	C194.773071,210.151596 194.577576,210.250885 194.079285,210.221771 
	C193.776459,209.888367 193.776428,209.683350 193.922363,209.207626 
	C194.515213,209.067703 194.962051,209.198502 195.188736,209.690796 
z"/>
<path fill="#232629" opacity="1.000000" stroke="none" 
	d="
M194.229645,208.572418 
	C193.701920,208.825882 193.329239,208.701843 193.003296,208.251587 
	C193.494934,208.015213 193.939819,208.105057 194.229645,208.572418 
z"/>
<path fill="#232629" opacity="1.000000" stroke="none" 
	d="
M193.194672,207.530594 
	C192.882385,208.028885 192.701569,208.125992 192.212906,208.222534 
	C191.819611,208.020187 191.734192,207.818405 191.798218,207.324020 
	C192.407181,207.064087 192.866669,207.096756 193.194672,207.530594 
z"/>
<path fill="#232629" opacity="1.000000" stroke="none" 
	d="
M192.174652,206.655548 
	C191.573410,206.942490 191.174835,206.831024 190.861145,206.373795 
	C191.423141,206.104401 191.900223,206.180756 192.174652,206.655548 
z"/>
<path fill="#232629" opacity="1.000000" stroke="none" 
	d="
M191.174652,205.655533 
	C190.573410,205.942490 190.174835,205.831024 189.861145,205.373779 
	C190.423141,205.104385 190.900223,205.180740 191.174652,205.655533 
z"/>
<path fill="#232629" opacity="1.000000" stroke="none" 
	d="
M190.174652,204.655518 
	C189.573410,204.942474 189.174835,204.831009 188.861145,204.373779 
	C189.423141,204.104385 189.900223,204.180756 190.174652,204.655518 
z"/>
<path fill="#232629" opacity="1.000000" stroke="none" 
	d="
M195.213745,211.223282 
	C194.820435,211.021072 194.734863,210.819199 194.798492,210.324387 
	C195.407379,210.064041 195.867035,210.096634 196.195038,210.530548 
	C195.882721,211.029114 195.702087,211.126373 195.213745,211.223282 
z"/>
<path fill="#232629" opacity="1.000000" stroke="none" 
	d="
M197.229645,211.572418 
	C196.701920,211.825882 196.329239,211.701843 196.003296,211.251587 
	C196.494934,211.015213 196.939819,211.105057 197.229645,211.572418 
z"/>
<path fill="#232629" opacity="1.000000" stroke="none" 
	d="
M181.188736,195.690796 
	C180.773071,196.151596 180.577576,196.250885 180.079285,196.221771 
	C179.776459,195.888367 179.776428,195.683350 179.922363,195.207626 
	C180.515213,195.067703 180.962051,195.198502 181.188736,195.690796 
z"/>
<path fill="#232629" opacity="1.000000" stroke="none" 
	d="
M184.174652,198.655533 
	C183.573410,198.942490 183.174835,198.831024 182.861145,198.373779 
	C183.423141,198.104385 183.900223,198.180756 184.174652,198.655533 
z"/>
<path fill="#232629" opacity="1.000000" stroke="none" 
	d="
M185.194672,199.530594 
	C184.882385,200.028885 184.701569,200.125992 184.212906,200.222534 
	C183.819611,200.020187 183.734192,199.818405 183.798218,199.324020 
	C184.407181,199.064087 184.866669,199.096756 185.194672,199.530594 
z"/>
<path fill="#232629" opacity="1.000000" stroke="none" 
	d="
M186.229645,200.572418 
	C185.701920,200.825882 185.329239,200.701843 185.003296,200.251587 
	C185.494934,200.015228 185.939819,200.105072 186.229645,200.572418 
z"/>
<path fill="#232629" opacity="1.000000" stroke="none" 
	d="
M187.229645,201.572418 
	C186.701920,201.825882 186.329239,201.701843 186.003296,201.251602 
	C186.494934,201.015228 186.939819,201.105072 187.229645,201.572418 
z"/>
<path fill="#232629" opacity="1.000000" stroke="none" 
	d="
M187.079712,203.222183 
	C186.776886,202.888870 186.776733,202.683792 186.922470,202.207794 
	C187.514969,202.067703 187.961578,202.198517 188.188202,202.690704 
	C187.772934,203.151505 187.577652,203.250946 187.079712,203.222183 
z"/>
<path fill="#232629" opacity="1.000000" stroke="none" 
	d="
M189.174652,203.655533 
	C188.573410,203.942490 188.174835,203.831024 187.861145,203.373779 
	C188.423141,203.104385 188.900223,203.180756 189.174652,203.655533 
z"/>
</svg>