<svg version="1.1" id="Layer_1" xmlns="http://www.w3.org/2000/svg" xmlns:xlink="http://www.w3.org/1999/xlink" x="0px" y="0px"
	 width="100%" viewBox="0 0 400 226" enable-background="new 0 0 400 226" xml:space="preserve">
<path fill="#FFFFFF" opacity="1.000000" stroke="none" 
	d="
M299.000000,227.000000 
	C199.333359,227.000000 100.166725,227.000000 1.000067,227.000000 
	C1.000044,151.666718 1.000044,76.333435 1.000022,1.000117 
	C134.333237,1.000078 267.666473,1.000078 400.999817,1.000039 
	C400.999878,76.333221 400.999878,151.666443 400.999939,226.999832 
	C367.166656,227.000000 333.333344,227.000000 299.000000,227.000000 
M164.988617,161.010971 
	C164.988617,161.010971 164.917694,161.041626 164.898529,161.643997 
	C165.249588,161.786087 165.600662,161.928192 165.994415,162.029190 
	C165.994415,162.029190 165.985107,162.087723 166.045181,162.654694 
	C166.353882,162.869324 166.662567,163.083969 167.271179,163.876297 
	C169.858047,165.608078 172.444916,167.339874 175.037216,168.969360 
	C175.037216,168.969360 174.936844,168.948883 174.805069,169.780243 
	C171.279465,169.554718 167.753860,169.329178 164.228256,169.103653 
	C164.111542,169.409271 163.994827,169.714905 163.878113,170.020538 
	C169.167542,172.642319 174.456985,175.264114 180.406967,177.977859 
	C180.628723,177.993744 180.850464,178.009613 181.251526,178.733643 
	C188.835144,180.158356 196.418747,181.583084 204.897766,183.302872 
	C212.657745,182.355453 220.417725,181.408035 228.962097,180.294327 
	C237.293213,176.524490 245.624344,172.754654 254.646683,168.864380 
	C260.229431,164.248230 265.812164,159.632080 271.909912,154.949219 
	C272.275208,154.429474 272.640472,153.909729 273.634552,153.038559 
	C274.793152,151.726730 276.154327,150.542328 277.074005,149.080170 
	C280.389679,143.808563 283.556610,138.443390 287.424622,132.884048 
	C287.960236,131.951569 288.495850,131.019089 289.195465,129.370590 
	C289.909363,127.362549 290.689972,125.375336 291.324402,123.342506 
	C293.069641,117.750282 295.085663,112.087967 289.072845,107.121536 
	C288.807129,106.419312 288.541412,105.717094 288.120117,104.410912 
	C288.094086,104.204651 288.068024,103.998398 288.029755,103.265678 
	C287.987061,103.095413 287.944397,102.925140 287.677460,101.868675 
	C287.800934,96.712730 288.940155,91.330971 287.853790,86.443970 
	C284.823578,72.812508 277.705261,61.667789 265.330627,54.348072 
	C249.356827,44.899441 232.081207,43.030151 214.205917,45.988285 
	C185.934433,50.666862 162.947464,64.100883 147.346527,88.635193 
	C134.471039,108.883438 135.306442,129.829651 149.051865,148.277512 
	C150.591644,150.344055 151.706787,152.727005 152.554962,155.283813 
	C154.231735,158.179733 155.908493,161.075653 157.585251,163.971573 
	C158.229004,163.542191 158.872757,163.112793 159.516510,162.683411 
	C158.021729,160.521149 156.526947,158.358902 155.770416,156.027695 
	C157.929108,157.067184 160.087799,158.106659 162.580551,159.638748 
	C163.066284,159.787506 163.552002,159.936264 164.008301,159.985855 
	C164.008301,159.985855 163.907791,160.010330 163.745163,160.666260 
	C164.149414,160.804794 164.553650,160.943329 164.988617,161.010971 
M292.084808,97.433571 
	C292.212372,97.462120 292.339905,97.490662 292.467468,97.519203 
	C292.371460,97.294930 292.275452,97.070648 292.064972,96.249313 
	C291.491638,96.077034 290.918335,95.904755 290.345001,95.732483 
	C290.852905,96.207733 291.360840,96.682983 292.084808,97.433571 
M361.727905,149.005371 
	C362.167603,148.021652 362.607300,147.037933 362.997009,146.005905 
	C362.997009,146.005905 363.056091,146.040909 363.759460,146.017715 
	C364.180542,145.020004 364.601593,144.022308 365.002075,143.004578 
	C365.002075,143.004578 365.026276,143.019943 365.727814,143.007446 
	C368.857605,136.284164 372.733887,129.799988 374.978149,122.793083 
	C381.887421,101.222015 380.388672,79.888512 371.433685,59.102467 
	C365.402222,45.102360 356.489746,33.264740 344.380981,23.948128 
	C341.701782,21.886726 341.563293,19.845068 343.238739,17.153473 
	C344.687134,14.826534 345.891052,12.347374 347.438446,9.502728 
	C322.569763,9.502728 298.504944,9.502728 273.642548,9.502728 
	C288.730408,27.410055 303.220703,44.608177 318.140472,62.316032 
	C320.405243,58.256901 322.530548,54.908241 324.190338,51.342865 
	C325.838867,47.801659 327.830353,47.249016 331.246338,49.077606 
	C350.605865,59.440903 365.412872,74.240227 374.977417,94.034714 
	C375.948517,96.044449 375.467102,99.099228 374.844177,101.453247 
	C373.971649,104.750458 372.333191,107.844986 371.005035,111.001617 
	C371.005035,111.001617 371.027374,111.021202 370.313721,111.019348 
	C369.883392,112.021507 369.453094,113.023659 369.000000,113.999695 
	C369.000000,113.999695 369.027374,114.021202 368.313721,114.019371 
	C367.883423,115.021553 367.453156,116.023735 367.000000,116.999695 
	C367.000000,116.999695 367.027405,117.021370 366.346497,116.993210 
	C365.850037,117.916954 365.353546,118.840698 364.671112,120.364815 
	C363.808746,121.260864 362.946381,122.156921 361.396515,122.987480 
	C360.883240,123.912796 360.369965,124.838112 359.649689,126.389496 
	C358.353241,127.546104 357.056793,128.702713 355.057312,129.780121 
	C353.389130,131.547928 351.720947,133.315735 349.845673,135.537415 
	C349.612427,135.799744 349.320923,135.946106 348.257629,135.833984 
	C347.161346,136.875809 346.065094,137.917633 344.998779,139.000977 
	C344.998779,139.000977 344.960663,138.965958 344.262085,138.796524 
	C343.508331,139.531799 342.754547,140.267090 342.000000,141.000000 
	C342.000000,141.000000 342.002472,141.000961 341.269226,140.869385 
	C338.170929,142.901566 335.072632,144.933746 331.998779,147.000778 
	C331.998779,147.000778 331.967255,146.971054 331.201477,146.822464 
	C326.170807,148.758087 321.140167,150.693726 315.866913,152.722687 
	C318.442749,162.203018 320.876587,171.160797 323.621185,181.262299 
	C327.781525,178.424637 330.932343,176.275558 334.061951,174.018677 
	C334.061951,174.018677 334.134125,174.101547 334.826263,174.232681 
	C335.564453,173.506912 336.302612,172.781143 337.006195,171.996704 
	C337.006195,171.996704 337.054382,172.046051 337.754486,172.211990 
	C338.503418,171.474838 339.252319,170.737701 340.000000,170.000000 
	C340.000000,170.000000 340.000549,170.001282 340.721405,170.151871 
	C341.812622,169.096680 342.903839,168.041473 344.246857,166.441956 
	C344.901978,166.004562 345.557098,165.567169 346.918640,165.221939 
	C348.261536,163.786697 349.604462,162.351471 351.142395,160.471069 
	C351.364227,160.218079 351.639435,160.055298 352.664337,160.044937 
	C353.495117,158.788101 354.325897,157.531281 355.430481,155.685883 
	C356.609436,154.451401 357.788422,153.216904 359.679596,151.986832 
	C360.127045,150.999161 360.574493,150.011490 361.000000,149.000000 
	C361.000000,149.000000 361.025238,149.019577 361.727905,149.005371 
M94.251503,45.784328 
	C93.494354,46.513863 92.737213,47.243393 91.718048,48.431953 
	C91.399826,48.574768 91.081604,48.717587 90.058807,48.780914 
	C88.723930,50.215828 87.389053,51.650742 85.750511,53.654949 
	C84.178520,55.109661 82.606522,56.564373 80.333717,57.958088 
	C79.508430,59.227535 78.683144,60.496983 77.671410,62.366367 
	C76.809502,63.262257 75.947594,64.158142 74.365173,65.012520 
	C73.914314,66.013359 73.463455,67.014198 73.000000,68.000000 
	C73.000000,68.000000 73.015877,68.011726 72.318367,68.002213 
	C70.882736,70.672516 69.447113,73.342819 68.000206,76.000923 
	C68.000206,76.000923 68.013924,76.009666 67.303917,76.011765 
	C60.506809,86.567360 57.192570,98.339943 56.158474,110.655731 
	C54.101749,135.150818 60.179413,157.450516 75.545631,176.898895 
	C77.248337,179.053940 77.257095,180.560760 75.476196,182.486465 
	C73.271881,184.870026 71.223274,187.397583 68.597008,190.457611 
	C92.723038,196.165070 116.070686,201.688400 140.761887,207.529556 
	C130.019836,186.063080 120.027786,166.095352 109.810677,145.677887 
	C105.381386,150.153915 101.551994,154.023697 97.625183,157.991943 
	C79.176094,143.276337 67.493713,124.688354 61.867649,102.129471 
	C61.027515,98.760773 61.104855,96.020287 63.955299,93.084198 
	C64.674469,91.781082 65.393639,90.477966 66.319916,88.551750 
	C67.631287,87.416550 68.942657,86.281349 70.952469,85.217796 
	C72.968285,83.144875 74.984100,81.071953 77.000000,79.000000 
	C77.000000,79.000000 76.999031,78.999893 77.710480,79.168320 
	C78.822121,78.132584 79.933754,77.096848 81.005470,75.997620 
	C81.005470,75.997620 81.060234,76.049515 81.763313,76.185341 
	C82.506020,75.452942 83.248718,74.720535 84.000000,74.000000 
	C84.000000,74.000000 83.988670,73.990875 84.724777,74.132034 
	C90.055908,71.451355 95.164619,68.099335 100.768761,66.242722 
	C109.841042,63.237125 119.260857,61.292454 128.478333,58.702003 
	C130.115234,58.241974 132.735779,56.870445 132.776550,55.836044 
	C133.121735,47.077515 132.973679,38.299541 132.973679,27.669746 
	C123.374443,31.286432 115.024971,34.217445 106.872231,37.619854 
	C103.999413,38.818775 101.608070,41.171371 99.000000,43.000000 
	C99.000000,43.000000 98.997520,42.996723 98.281097,42.858368 
	C97.173561,43.887058 96.066025,44.915749 94.993980,46.003197 
	C94.993980,46.003197 94.945343,45.953533 94.251503,45.784328 
M293.196960,100.297005 
	C292.522308,100.824280 291.847656,101.351555 291.172974,101.878807 
	C291.915161,102.365685 292.657349,102.852562 293.399536,103.339439 
	C293.502472,102.482773 293.605408,101.626114 293.196960,100.297005 
M160.184555,165.766586 
	C160.125015,165.587982 160.065475,165.409393 160.005966,165.230789 
	C159.948822,165.410141 159.891693,165.589493 160.184555,165.766586 
M290.210876,91.792702 
	C290.144714,91.591919 290.078552,91.391144 290.012421,91.190369 
	C289.947327,91.392860 289.882263,91.595352 290.210876,91.792702 
z"/>
<path fill="#F7D23A" opacity="1.000000" stroke="none" 
	d="
M162.246475,159.146149 
	C160.087799,158.106659 157.929108,157.067184 155.127274,155.993347 
	C153.995697,155.627075 153.507278,155.295151 153.018845,154.963242 
	C151.706787,152.727005 150.591644,150.344055 149.051865,148.277512 
	C135.306442,129.829651 134.471039,108.883438 147.346527,88.635193 
	C162.947464,64.100883 185.934433,50.666862 214.205917,45.988285 
	C232.081207,43.030151 249.356827,44.899441 265.330627,54.348072 
	C277.705261,61.667789 284.823578,72.812508 287.853790,86.443970 
	C288.940155,91.330971 287.800934,96.712730 287.683289,102.443161 
	C287.576813,103.384628 287.694458,103.642792 288.041992,103.792137 
	C288.068024,103.998398 288.094086,104.204651 288.030792,104.897026 
	C287.727203,106.294495 287.512909,107.205841 287.176636,108.469131 
	C284.681793,113.538231 282.308929,118.255379 279.638306,123.134964 
	C276.063293,127.899055 272.786011,132.500717 269.571075,137.432098 
	C268.264465,139.046341 266.895538,140.330841 265.189148,141.671173 
	C260.820465,144.827744 256.789215,147.928452 252.550049,151.288025 
	C249.828064,153.007935 247.314026,154.468979 244.449387,155.991425 
	C237.990036,158.693512 231.881287,161.334213 225.452789,164.168152 
	C223.432388,164.640427 221.731720,164.919449 219.626266,165.197372 
	C212.788528,166.142288 206.355591,167.088303 199.540405,168.058395 
	C198.139877,168.047028 197.121613,168.011566 195.682037,167.887817 
	C190.833664,167.584396 186.406616,167.369278 181.597290,167.099625 
	C179.037704,166.407928 176.860382,165.770752 174.750275,165.087402 
	C174.817459,165.041229 174.951920,165.133438 174.884003,164.851288 
	C174.473434,164.415298 174.130814,164.261444 173.443924,163.956665 
	C170.903214,163.009125 168.706741,162.212494 166.283676,161.509338 
	C166.057068,161.602798 165.985107,162.087723 165.985107,162.087723 
	C165.985107,162.087723 165.994415,162.029190 166.170181,161.683105 
	C165.869858,161.238556 165.393784,161.140091 164.917694,161.041626 
	C164.917694,161.041626 164.988617,161.010971 165.070801,160.721252 
	C164.737930,160.291138 164.322861,160.150726 163.907791,160.010330 
	C163.907791,160.010330 164.008301,159.985855 163.860687,159.827454 
	C163.224197,159.494766 162.735336,159.320450 162.246475,159.146149 
M202.134247,91.531982 
	C198.315018,98.907608 194.588852,106.334297 190.593933,113.613495 
	C189.842529,114.982628 187.620972,116.927429 186.753586,116.630760 
	C180.067902,114.344093 179.156296,119.769554 176.494492,123.601341 
	C180.808441,124.648933 184.744232,125.604691 189.064331,126.653770 
	C187.177155,130.572968 185.497391,134.061432 183.804489,137.577179 
	C189.753265,139.701309 189.752197,139.700760 192.413742,134.539566 
	C192.946823,133.505814 193.618866,132.523682 194.007492,131.439148 
	C195.263062,127.935371 197.414764,128.159897 200.465149,129.829254 
	C198.705994,133.415588 197.048874,136.793930 195.258148,140.444611 
	C197.584427,140.967636 199.486908,141.395386 201.498978,141.847763 
	C201.909119,141.241241 202.408325,140.755417 202.608963,140.167664 
	C204.914825,133.413254 208.714096,129.137024 216.684479,131.233917 
	C217.743164,131.512436 219.001968,131.131531 220.151169,130.949234 
	C233.255493,128.870377 240.744812,114.320122 233.460709,104.523087 
	C240.239670,101.802025 244.547134,96.802414 244.525864,89.530792 
	C244.507721,83.329010 238.681305,81.721573 233.878677,79.365494 
	C235.687820,75.721809 237.441010,72.190819 239.301407,68.443924 
	C237.006424,67.931725 235.095139,67.505157 232.985672,67.034363 
	C231.658463,69.517616 230.433899,71.848160 229.173050,74.158913 
	C227.172806,77.824730 227.162552,77.819138 222.584732,76.111137 
	C224.194962,72.737480 225.795609,69.383934 227.626038,65.548927 
	C225.063232,65.123154 223.163742,64.807579 220.636658,64.387733 
	C218.947220,75.142387 212.552368,76.449295 203.893219,72.962135 
	C203.487564,72.798782 202.930939,73.010345 202.231918,73.063469 
	C201.154434,75.165588 200.057281,77.306053 198.930435,79.504463 
	C207.122330,82.023460 207.122330,82.023460 203.156052,89.537857 
	C202.922821,89.979729 202.689056,90.421310 202.134247,91.531982 
z"/>
<path fill="#AEB4BC" opacity="1.000000" stroke="none" 
	d="
M371.022400,111.026222 
	C372.333191,107.844986 373.971649,104.750458 374.844177,101.453247 
	C375.467102,99.099228 375.948517,96.044449 374.977417,94.034714 
	C365.412872,74.240227 350.605865,59.440903 331.246338,49.077606 
	C327.830353,47.249016 325.838867,47.801659 324.190338,51.342865 
	C322.530548,54.908241 320.405243,58.256901 318.140472,62.316032 
	C303.220703,44.608177 288.730408,27.410055 273.642548,9.502728 
	C298.504944,9.502728 322.569763,9.502728 347.438446,9.502728 
	C345.891052,12.347374 344.687134,14.826534 343.238739,17.153473 
	C341.563293,19.845068 341.701782,21.886726 344.380981,23.948128 
	C356.489746,33.264740 365.402222,45.102360 371.433685,59.102467 
	C380.388672,79.888512 381.887421,101.222015 374.978149,122.793083 
	C372.733887,129.799988 368.857605,136.284164 365.366272,142.648865 
	C371.521912,130.144363 376.376648,117.518791 377.125061,102.521416 
	C374.592102,106.051399 372.807251,108.538811 371.022400,111.026222 
z"/>
<path fill="#AEB4BC" opacity="1.000000" stroke="none" 
	d="
M63.377110,93.418106 
	C61.104855,96.020287 61.027515,98.760773 61.867649,102.129471 
	C67.493713,124.688354 79.176094,143.276337 97.625183,157.991943 
	C101.551994,154.023697 105.381386,150.153915 109.810677,145.677887 
	C120.027786,166.095352 130.019836,186.063080 140.761887,207.529556 
	C116.070686,201.688400 92.723038,196.165070 68.597008,190.457611 
	C71.223274,187.397583 73.271881,184.870026 75.476196,182.486465 
	C77.257095,180.560760 77.248337,179.053940 75.545631,176.898895 
	C60.179413,157.450516 54.101749,135.150818 56.158474,110.655731 
	C57.192570,98.339943 60.506809,86.567360 67.699371,76.381859 
	C66.375587,81.517868 64.656364,86.283783 62.962570,91.029510 
	C62.988003,91.009331 63.036217,90.965828 62.759590,90.840561 
	C62.596889,91.417725 62.710812,92.120171 62.963326,92.971024 
	C63.101910,93.119446 63.377110,93.418106 63.377110,93.418106 
z"/>
<path fill="#0D1013" opacity="1.000000" stroke="none" 
	d="
M371.013733,111.013916 
	C372.807251,108.538811 374.592102,106.051399 377.125061,102.521416 
	C376.376648,117.518791 371.521912,130.144363 365.015503,142.655106 
	C365.026276,143.019943 365.002075,143.004578 364.686707,143.084503 
	C363.932922,144.123245 363.494507,145.082077 363.056091,146.040909 
	C363.056091,146.040909 362.997009,146.005905 362.694885,146.086319 
	C361.936920,147.117691 361.481079,148.068634 361.025238,149.019577 
	C361.025238,149.019577 361.000000,149.000000 360.689453,149.077667 
	C359.908386,150.097687 359.437897,151.040054 358.967407,151.982422 
	C357.788422,153.216904 356.609436,154.451401 354.965088,155.989410 
	C353.655792,157.522873 352.811890,158.752792 351.967987,159.982712 
	C351.639435,160.055298 351.364227,160.218079 350.708008,160.704559 
	C348.919800,162.335297 347.566010,163.732529 346.212219,165.129776 
	C345.557098,165.567169 344.901978,166.004562 343.787842,166.722931 
	C342.219391,168.003036 341.109985,169.002167 340.000549,170.001282 
	C340.000549,170.001282 340.000000,170.000000 339.673218,169.997589 
	C338.582428,170.678802 337.818390,171.362427 337.054382,172.046051 
	C337.054382,172.046051 337.006195,171.996704 336.699829,171.991333 
	C335.640381,172.691162 334.887268,173.396362 334.134155,174.101562 
	C334.134125,174.101547 334.061951,174.018677 333.706848,174.031921 
	C330.550934,175.411987 327.750153,176.778809 324.720154,178.257492 
	C324.156403,176.856873 323.628296,175.855164 323.344177,174.788467 
	C321.518524,167.934326 319.746307,161.065979 317.971252,154.258667 
	C322.798096,151.745361 327.382690,149.358215 331.967255,146.971069 
	C331.967255,146.971054 331.998779,147.000778 332.350891,147.022552 
	C335.802826,145.029877 338.902649,143.015411 342.002472,141.000946 
	C342.002472,141.000961 342.000000,141.000000 342.328857,141.011642 
	C343.425354,140.337509 344.193024,139.651733 344.960663,138.965958 
	C344.960663,138.965958 344.998779,139.000977 345.316528,139.001190 
	C346.746582,137.993103 347.858917,136.984818 348.971222,135.976517 
	C349.320923,135.946106 349.612427,135.799744 350.286438,135.284592 
	C352.404877,133.307617 354.082611,131.583466 355.760315,129.859314 
	C357.056793,128.702713 358.353241,127.546104 360.074036,126.050919 
	C361.026947,124.825890 361.555481,123.939430 362.083984,123.052979 
	C362.946381,122.156921 363.808746,121.260864 365.088501,120.037582 
	C366.013062,118.814018 366.520233,117.917694 367.027405,117.021370 
	C367.027405,117.021370 367.000000,116.999695 367.335632,116.950638 
	C368.123291,115.941452 368.575348,114.981331 369.027405,114.021210 
	C369.027374,114.021202 369.000000,113.999695 369.335571,113.950638 
	C370.123230,112.941460 370.575317,111.981331 371.027374,111.021210 
	C371.027374,111.021202 371.005035,111.001617 371.013733,111.013916 
z"/>
<path fill="#0D1013" opacity="1.000000" stroke="none" 
	d="
M62.937141,91.049698 
	C64.656364,86.283783 66.375587,81.517868 68.054367,76.380814 
	C68.013924,76.009666 68.000206,76.000923 68.333427,75.912292 
	C70.116394,73.219681 71.566132,70.615707 73.015877,68.011726 
	C73.015877,68.011726 73.000000,68.000000 73.332123,67.954048 
	C74.138062,66.956741 74.611870,66.005386 75.085678,65.054031 
	C75.947594,64.158142 76.809502,63.262257 78.091629,62.037727 
	C79.352745,60.479088 80.193634,59.249088 81.034523,58.019085 
	C82.606522,56.564373 84.178520,55.109661 86.238655,53.359756 
	C88.072327,51.663174 89.417854,50.261784 90.763382,48.860397 
	C91.081604,48.717587 91.399826,48.574768 92.176430,48.220123 
	C93.404991,47.323372 94.175163,46.638454 94.945343,45.953533 
	C94.945343,45.953533 94.993980,46.003197 95.308990,46.004349 
	C96.748497,45.002575 97.873009,43.999649 98.997520,42.996719 
	C98.997520,42.996723 99.000000,43.000000 99.363770,43.010735 
	C109.475456,37.669250 119.415321,32.825813 131.410629,31.100525 
	C131.410629,38.818562 131.543182,46.285603 131.268951,53.737671 
	C131.227402,54.866657 129.462204,56.587452 128.207764,56.905933 
	C121.958183,58.492577 115.269844,58.856037 109.381889,61.243240 
	C100.632858,64.790443 92.426178,69.675316 83.988670,73.990875 
	C83.988670,73.990875 84.000000,74.000000 83.671310,73.996765 
	C82.581825,74.678848 81.821030,75.364182 81.060234,76.049515 
	C81.060234,76.049515 81.005470,75.997620 80.690674,76.020935 
	C79.250267,77.029472 78.124649,78.014679 76.999031,78.999893 
	C76.999031,78.999893 77.000000,79.000000 76.658142,79.005859 
	C74.295532,81.056526 72.274773,83.101334 70.254021,85.146149 
	C68.942657,86.281349 67.631287,87.416550 65.887497,88.893494 
	C64.615761,89.840057 63.776455,90.444878 62.937141,91.049698 
z"/>
<path fill="#AEB4BC" opacity="1.000000" stroke="none" 
	d="
M84.356720,74.061455 
	C92.426178,69.675316 100.632858,64.790443 109.381889,61.243240 
	C115.269844,58.856037 121.958183,58.492577 128.207764,56.905933 
	C129.462204,56.587452 131.227402,54.866657 131.268951,53.737671 
	C131.543182,46.285603 131.410629,38.818562 131.410629,31.100525 
	C119.415321,32.825813 109.475456,37.669250 99.362213,43.009346 
	C101.608070,41.171371 103.999413,38.818775 106.872231,37.619854 
	C115.024971,34.217445 123.374443,31.286432 132.973679,27.669746 
	C132.973679,38.299541 133.121735,47.077515 132.776550,55.836044 
	C132.735779,56.870445 130.115234,58.241974 128.478333,58.702003 
	C119.260857,61.292454 109.841042,63.237125 100.768761,66.242722 
	C95.164619,68.099335 90.055908,71.451355 84.356720,74.061455 
z"/>
<path fill="#1C1E21" opacity="1.000000" stroke="none" 
	d="
M252.758011,151.029175 
	C256.789215,147.928452 260.820465,144.827744 265.390137,142.024689 
	C267.750702,146.553558 269.572815,150.784760 271.394928,155.015945 
	C265.812164,159.632080 260.229431,164.248230 254.115082,168.934494 
	C253.583466,169.004608 253.213593,169.049072 253.088593,168.717316 
	C257.627228,161.801239 263.632843,156.038071 266.236267,148.150314 
	C261.367706,149.190201 257.062866,150.109695 252.758011,151.029175 
z"/>
<path fill="#1F2124" opacity="1.000000" stroke="none" 
	d="
M181.979553,167.154144 
	C186.406616,167.369278 190.833664,167.584396 195.701233,168.242371 
	C198.763367,173.189331 201.384979,177.693420 204.010437,182.400116 
	C204.014313,182.602707 204.002365,183.007797 204.002365,183.007797 
	C196.418747,181.583084 188.835144,180.158356 181.590698,178.386230 
	C187.262878,177.271362 192.595901,176.503937 199.097794,175.568298 
	C192.429550,172.290634 187.204559,169.722397 181.979553,167.154144 
z"/>
<path fill="#F8F8F8" opacity="1.000000" stroke="none" 
	d="
M271.652405,154.982574 
	C269.572815,150.784760 267.750702,146.553558 265.727600,141.968857 
	C266.895538,140.330841 268.264465,139.046341 269.956665,137.542633 
	C274.152039,134.949631 278.024139,132.575836 281.896240,130.202057 
	C282.245880,130.473206 282.595520,130.744354 282.945190,131.015518 
	C280.247131,136.575348 277.489655,142.107574 274.885437,147.711014 
	C274.050629,149.507233 273.620850,151.491669 273.005737,153.389984 
	C272.640472,153.909729 272.275208,154.429474 271.652405,154.982574 
z"/>
<path fill="#1E2124" opacity="1.000000" stroke="none" 
	d="
M273.320160,153.214264 
	C273.620850,151.491669 274.050629,149.507233 274.885437,147.711014 
	C277.489655,142.107574 280.247131,136.575348 282.945190,131.015518 
	C282.595520,130.744354 282.245880,130.473206 281.896240,130.202057 
	C278.024139,132.575836 274.152039,134.949631 269.894348,137.212891 
	C272.786011,132.500717 276.063293,127.899055 279.839844,123.415863 
	C281.902893,126.353897 283.466675,129.173462 285.069855,132.353455 
	C285.666077,132.847107 286.222931,132.980331 286.779755,133.113556 
	C283.556610,138.443390 280.389679,143.808563 277.074005,149.080170 
	C276.154327,150.542328 274.793152,151.726730 273.320160,153.214264 
z"/>
<path fill="#1E2124" opacity="1.000000" stroke="none" 
	d="
M253.213593,169.049072 
	C253.213593,169.049072 253.583466,169.004608 253.769470,168.994720 
	C245.624344,172.754654 237.293213,176.524490 228.504990,180.140625 
	C228.047882,179.986908 228.003754,179.499588 228.226898,179.220520 
	C234.628967,173.609680 240.807892,168.277908 247.349670,162.904877 
	C249.546219,164.925430 251.379898,166.987259 253.213593,169.049072 
z"/>
<path fill="#F8F8F8" opacity="1.000000" stroke="none" 
	d="
M181.597290,167.099625 
	C187.204559,169.722397 192.429550,172.290634 199.097794,175.568298 
	C192.595901,176.503937 187.262878,177.271362 181.501038,178.032150 
	C180.850464,178.009613 180.628723,177.993744 180.023529,177.588654 
	C178.072342,174.449280 176.504593,171.699081 174.936844,168.948883 
	C174.936844,168.948883 175.037216,168.969360 175.193695,168.630188 
	C175.127808,167.238525 174.905441,166.186066 174.683075,165.133591 
	C176.860382,165.770752 179.037704,166.407928 181.597290,167.099625 
z"/>
<path fill="#191C1F" opacity="1.000000" stroke="none" 
	d="
M228.003754,179.499588 
	C228.003754,179.499588 228.047882,179.986908 228.112793,180.223755 
	C220.417725,181.408035 212.657745,182.355453 204.450073,183.155334 
	C204.002365,183.007797 204.014313,182.602707 204.329575,182.228729 
	C210.766693,178.770782 216.888565,175.686829 223.344818,172.750732 
	C225.120728,175.098938 226.562241,177.299255 228.003754,179.499588 
z"/>
<path fill="#AEB4BC" opacity="1.000000" stroke="none" 
	d="
M331.584351,146.896759 
	C327.382690,149.358215 322.798096,151.745361 317.971252,154.258667 
	C319.746307,161.065979 321.518524,167.934326 323.344177,174.788467 
	C323.628296,175.855164 324.156403,176.856873 324.720154,178.257492 
	C327.750153,176.778809 330.550934,175.411987 333.717438,174.085815 
	C330.932343,176.275558 327.781525,178.424637 323.621185,181.262299 
	C320.876587,171.160797 318.442749,162.203018 315.866913,152.722687 
	C321.140167,150.693726 326.170807,148.758087 331.584351,146.896759 
z"/>
<path fill="#1F2124" opacity="1.000000" stroke="none" 
	d="
M288.934906,107.690033 
	C295.085663,112.087967 293.069641,117.750282 291.324402,123.342506 
	C290.689972,125.375336 289.909363,127.362549 288.850708,129.828537 
	C288.318695,130.294525 288.131439,130.302551 287.612610,130.078979 
	C287.814575,122.550880 288.348114,115.254402 288.958527,107.903595 
	C289.035400,107.849251 288.934906,107.690033 288.934906,107.690033 
z"/>
<path fill="#2C2E31" opacity="1.000000" stroke="none" 
	d="
M174.870956,169.364563 
	C176.504593,171.699081 178.072342,174.449280 179.693253,177.542679 
	C174.456985,175.264114 169.167542,172.642319 163.878113,170.020538 
	C163.994827,169.714905 164.111542,169.409271 164.228256,169.103653 
	C167.753860,169.329178 171.279465,169.554718 174.870956,169.364563 
z"/>
<path fill="#2C2E31" opacity="1.000000" stroke="none" 
	d="
M174.750275,165.087402 
	C174.905441,166.186066 175.127808,167.238525 175.190979,168.681335 
	C172.444916,167.339874 169.858047,165.608078 167.065002,163.102264 
	C166.742645,162.024094 166.626465,161.719986 166.510284,161.415878 
	C168.706741,162.212494 170.903214,163.009125 173.526413,164.282104 
	C174.286072,164.883453 174.618988,165.008453 174.951920,165.133453 
	C174.951920,165.133438 174.817459,165.041229 174.750275,165.087402 
z"/>
<path fill="#F1F1F1" opacity="1.000000" stroke="none" 
	d="
M152.786896,155.123535 
	C153.507278,155.295151 153.995697,155.627075 154.758148,156.077820 
	C156.526947,158.358902 158.021729,160.521149 159.516510,162.683411 
	C158.872757,163.112793 158.229004,163.542191 157.585251,163.971573 
	C155.908493,161.075653 154.231735,158.179733 152.786896,155.123535 
z"/>
<path fill="#AEB4BC" opacity="1.000000" stroke="none" 
	d="
M341.635864,140.935165 
	C338.902649,143.015411 335.802826,145.029877 332.338684,147.005127 
	C335.072632,144.933746 338.170929,142.901566 341.635864,140.935165 
z"/>
<path fill="#AEB4BC" opacity="1.000000" stroke="none" 
	d="
M70.603241,85.181976 
	C72.274773,83.101334 74.295532,81.056526 76.658104,79.005371 
	C74.984100,81.071953 72.968285,83.144875 70.603241,85.181976 
z"/>
<path fill="#AEB4BC" opacity="1.000000" stroke="none" 
	d="
M72.667122,68.006973 
	C71.566132,70.615707 70.116394,73.219681 68.339066,75.918396 
	C69.447113,73.342819 70.882736,70.672516 72.667122,68.006973 
z"/>
<path fill="#AEB4BC" opacity="1.000000" stroke="none" 
	d="
M355.408813,129.819717 
	C354.082611,131.583466 352.404877,133.307617 350.389954,135.057648 
	C351.720947,133.315735 353.389130,131.547928 355.408813,129.819717 
z"/>
<path fill="#AEB4BC" opacity="1.000000" stroke="none" 
	d="
M90.411095,48.820656 
	C89.417854,50.261784 88.072327,51.663174 86.390488,53.075104 
	C87.389053,51.650742 88.723930,50.215828 90.411095,48.820656 
z"/>
<path fill="#AEB4BC" opacity="1.000000" stroke="none" 
	d="
M346.565430,165.175842 
	C347.566010,163.732529 348.919800,162.335297 350.610474,160.927155 
	C349.604462,162.351471 348.261536,163.786697 346.565430,165.175842 
z"/>
<path fill="#EEEEEC" opacity="1.000000" stroke="none" 
	d="
M293.452637,100.533226 
	C293.605408,101.626114 293.502472,102.482773 293.399536,103.339439 
	C292.657349,102.852562 291.915161,102.365685 291.172974,101.878815 
	C291.847656,101.351555 292.522308,100.824280 293.452637,100.533226 
z"/>
<path fill="#AEB4BC" opacity="1.000000" stroke="none" 
	d="
M62.962574,91.029518 
	C63.776455,90.444878 64.615761,89.840057 65.783936,89.205048 
	C65.393639,90.477966 64.674469,91.781082 63.666206,93.251152 
	C63.377110,93.418106 63.101910,93.119446 63.053474,92.656754 
	C63.015427,91.784653 63.025822,91.375244 63.036217,90.965828 
	C63.036217,90.965828 62.988003,91.009331 62.962574,91.029518 
z"/>
<path fill="#AEB4BC" opacity="1.000000" stroke="none" 
	d="
M77.354752,79.084106 
	C78.124649,78.014679 79.250267,77.029472 80.710640,76.052689 
	C79.933754,77.096848 78.822121,78.132584 77.354752,79.084106 
z"/>
<path fill="#AEB4BC" opacity="1.000000" stroke="none" 
	d="
M352.316162,160.013824 
	C352.811890,158.752792 353.655792,157.522873 354.828186,156.283691 
	C354.325897,157.531281 353.495117,158.788101 352.316162,160.013824 
z"/>
<path fill="#AEB4BC" opacity="1.000000" stroke="none" 
	d="
M80.684120,57.988586 
	C80.193634,59.249088 79.352745,60.479088 78.184860,61.737762 
	C78.683144,60.496983 79.508430,59.227535 80.684120,57.988586 
z"/>
<path fill="#AEB4BC" opacity="1.000000" stroke="none" 
	d="
M340.360962,170.076569 
	C341.109985,169.002167 342.219391,168.003036 343.661926,166.995087 
	C342.903839,168.041473 341.812622,169.096680 340.360962,170.076569 
z"/>
<path fill="#AEB4BC" opacity="1.000000" stroke="none" 
	d="
M98.639313,42.927544 
	C97.873009,43.999649 96.748497,45.002575 95.291237,45.974968 
	C96.066025,44.915749 97.173561,43.887058 98.639313,42.927544 
z"/>
<path fill="#AEB4BC" opacity="1.000000" stroke="none" 
	d="
M348.614441,135.905243 
	C347.858917,136.984818 346.746582,137.993103 345.301575,138.980423 
	C346.065094,137.917633 347.161346,136.875809 348.614441,135.905243 
z"/>
<path fill="#EEEEEC" opacity="1.000000" stroke="none" 
	d="
M287.298615,108.117188 
	C287.512909,107.205841 287.727203,106.294495 288.108582,105.199005 
	C288.541412,105.717094 288.807129,106.419312 289.003876,107.405785 
	C288.934906,107.690033 289.035400,107.849251 288.697266,107.949966 
	C288.005615,108.072853 287.652100,108.095024 287.298615,108.117188 
z"/>
<path fill="#F2F2F3" opacity="1.000000" stroke="none" 
	d="
M287.944214,130.310577 
	C288.131439,130.302551 288.318695,130.294525 288.768677,130.186554 
	C288.495850,131.019089 287.960236,131.951569 287.102173,132.998810 
	C286.222931,132.980331 285.666077,132.847107 285.329163,132.239166 
	C286.347473,131.279846 287.145844,130.795212 287.944214,130.310577 
z"/>
<path fill="#AEB4BC" opacity="1.000000" stroke="none" 
	d="
M370.670532,111.020279 
	C370.575317,111.981331 370.123230,112.941460 369.346985,113.963699 
	C369.453094,113.023659 369.883392,112.021507 370.670532,111.020279 
z"/>
<path fill="#AEB4BC" opacity="1.000000" stroke="none" 
	d="
M74.725426,65.033279 
	C74.611870,66.005386 74.138062,66.956741 73.338425,67.961563 
	C73.463455,67.014198 73.914314,66.013359 74.725426,65.033279 
z"/>
<path fill="#AEB4BC" opacity="1.000000" stroke="none" 
	d="
M361.740265,123.020226 
	C361.555481,123.939430 361.026947,124.825890 360.177551,125.737885 
	C360.369965,124.838112 360.883240,123.912796 361.740265,123.020226 
z"/>
<path fill="#AEB4BC" opacity="1.000000" stroke="none" 
	d="
M366.686951,117.007294 
	C366.520233,117.917694 366.013062,118.814018 365.181458,119.737396 
	C365.353546,118.840698 365.850037,117.916954 366.686951,117.007294 
z"/>
<path fill="#AEB4BC" opacity="1.000000" stroke="none" 
	d="
M81.411774,76.117432 
	C81.821030,75.364182 82.581825,74.678848 83.667023,73.990829 
	C83.248718,74.720535 82.506020,75.452942 81.411774,76.117432 
z"/>
<path fill="#AEB4BC" opacity="1.000000" stroke="none" 
	d="
M368.670563,114.020294 
	C368.575348,114.981331 368.123291,115.941452 367.347046,116.963745 
	C367.453156,116.023735 367.883423,115.021553 368.670563,114.020294 
z"/>
<path fill="#AEB4BC" opacity="1.000000" stroke="none" 
	d="
M337.404419,172.129028 
	C337.818390,171.362427 338.582428,170.678802 339.673828,169.997864 
	C339.252319,170.737701 338.503418,171.474838 337.404419,172.129028 
z"/>
<path fill="#AEB4BC" opacity="1.000000" stroke="none" 
	d="
M334.480225,174.167114 
	C334.887268,173.396362 335.640381,172.691162 336.717163,172.020660 
	C336.302612,172.781143 335.564453,173.506912 334.480225,174.167114 
z"/>
<path fill="#AEB4BC" opacity="1.000000" stroke="none" 
	d="
M344.611389,138.881241 
	C344.193024,139.651733 343.425354,140.337509 342.329254,141.012817 
	C342.754547,140.267090 343.508331,139.531799 344.611389,138.881241 
z"/>
<path fill="#AEB4BC" opacity="1.000000" stroke="none" 
	d="
M94.598419,45.868931 
	C94.175163,46.638454 93.404991,47.323372 92.307434,47.990608 
	C92.737213,47.243393 93.494354,46.513863 94.598419,45.868931 
z"/>
<path fill="#AEB4BC" opacity="1.000000" stroke="none" 
	d="
M363.407776,146.029312 
	C363.494507,145.082077 363.932922,144.123245 364.697021,143.094513 
	C364.601593,144.022308 364.180542,145.020004 363.407776,146.029312 
z"/>
<path fill="#AEB4BC" opacity="1.000000" stroke="none" 
	d="
M359.323486,151.984619 
	C359.437897,151.040054 359.908386,150.097687 360.700439,149.089569 
	C360.574493,150.011490 360.127045,150.999161 359.323486,151.984619 
z"/>
<path fill="#AEB4BC" opacity="1.000000" stroke="none" 
	d="
M361.376587,149.012482 
	C361.481079,148.068634 361.936920,147.117691 362.719849,146.110474 
	C362.607300,147.037933 362.167603,148.021652 361.376587,149.012482 
z"/>
<path fill="#EEEEEC" opacity="1.000000" stroke="none" 
	d="
M291.868774,97.158234 
	C291.360840,96.682983 290.852905,96.207733 290.345001,95.732483 
	C290.918335,95.904755 291.491638,96.077034 292.041748,96.623016 
	C292.018524,96.996719 291.868774,97.158226 291.868774,97.158234 
z"/>
<path fill="#F1F1F1" opacity="1.000000" stroke="none" 
	d="
M160.009552,165.767700 
	C159.891693,165.589493 159.948822,165.410141 160.005951,165.230789 
	C160.065475,165.409393 160.125015,165.587982 160.009552,165.767700 
z"/>
<path fill="#38382F" opacity="1.000000" stroke="none" 
	d="
M162.413513,159.392456 
	C162.735336,159.320450 163.224197,159.494766 163.875397,159.877045 
	C163.552002,159.936264 163.066284,159.787506 162.413513,159.392456 
z"/>
<path fill="#EEEEEC" opacity="1.000000" stroke="none" 
	d="
M290.014038,91.795273 
	C289.882263,91.595352 289.947327,91.392860 290.012390,91.190369 
	C290.078552,91.391144 290.144714,91.591919 290.014038,91.795273 
z"/>
<path fill="#EEEEEC" opacity="1.000000" stroke="none" 
	d="
M292.098999,96.921539 
	C292.275452,97.070648 292.371460,97.294930 292.467468,97.519203 
	C292.339905,97.490662 292.212372,97.462120 291.976807,97.295898 
	C291.868774,97.158226 292.018524,96.996719 292.098999,96.921539 
z"/>
<path fill="#38382F" opacity="1.000000" stroke="none" 
	d="
M166.283676,161.509338 
	C166.626465,161.719986 166.742645,162.024094 166.915039,162.813416 
	C166.662567,163.083969 166.353882,162.869324 166.015137,162.371216 
	C165.985107,162.087723 166.057068,161.602798 166.283676,161.509338 
z"/>
<path fill="#38382F" opacity="1.000000" stroke="none" 
	d="
M164.908112,161.342804 
	C165.393784,161.140091 165.869858,161.238556 166.148834,161.703659 
	C165.600662,161.928192 165.249588,161.786087 164.908112,161.342804 
z"/>
<path fill="#38382F" opacity="1.000000" stroke="none" 
	d="
M163.826477,160.338287 
	C164.322861,160.150726 164.737930,160.291138 165.055450,160.756699 
	C164.553650,160.943329 164.149414,160.804794 163.826477,160.338287 
z"/>
<path fill="#EEEEEC" opacity="1.000000" stroke="none" 
	d="
M288.035889,103.528908 
	C287.694458,103.642792 287.576813,103.384628 287.795410,102.886261 
	C287.944397,102.925140 287.987061,103.095413 288.035889,103.528908 
z"/>
<path fill="#111312" opacity="1.000000" stroke="none" 
	d="
M202.294891,91.197502 
	C202.689056,90.421310 202.922821,89.979729 203.156052,89.537857 
	C207.122330,82.023460 207.122330,82.023460 198.930435,79.504463 
	C200.057281,77.306053 201.154434,75.165588 202.231918,73.063469 
	C202.930939,73.010345 203.487564,72.798782 203.893219,72.962135 
	C212.552368,76.449295 218.947220,75.142387 220.636658,64.387733 
	C223.163742,64.807579 225.063232,65.123154 227.626038,65.548927 
	C225.795609,69.383934 224.194962,72.737480 222.584732,76.111137 
	C227.162552,77.819138 227.172806,77.824730 229.173050,74.158913 
	C230.433899,71.848160 231.658463,69.517616 232.985672,67.034363 
	C235.095139,67.505157 237.006424,67.931725 239.301407,68.443924 
	C237.441010,72.190819 235.687820,75.721809 233.878677,79.365494 
	C238.681305,81.721573 244.507721,83.329010 244.525864,89.530792 
	C244.547134,96.802414 240.239670,101.802025 233.460709,104.523087 
	C240.744812,114.320122 233.255493,128.870377 220.151169,130.949234 
	C219.001968,131.131531 217.743164,131.512436 216.684479,131.233917 
	C208.714096,129.137024 204.914825,133.413254 202.608963,140.167664 
	C202.408325,140.755417 201.909119,141.241241 201.498978,141.847763 
	C199.486908,141.395386 197.584427,140.967636 195.258148,140.444611 
	C197.048874,136.793930 198.705994,133.415588 200.465149,129.829254 
	C197.414764,128.159897 195.263062,127.935371 194.007492,131.439148 
	C193.618866,132.523682 192.946823,133.505814 192.413742,134.539566 
	C189.752197,139.700760 189.753265,139.701309 183.804489,137.577179 
	C185.497391,134.061432 187.177155,130.572968 189.064331,126.653770 
	C184.744232,125.604691 180.808441,124.648933 176.494492,123.601341 
	C179.156296,119.769554 180.067902,114.344093 186.753586,116.630760 
	C187.620972,116.927429 189.842529,114.982628 190.593933,113.613495 
	C194.588852,106.334297 198.315018,98.907608 202.294891,91.197502 
M210.535812,121.934158 
	C213.092209,121.435303 216.159637,121.639290 218.069183,120.250824 
	C220.215302,118.690331 222.354446,115.759972 222.514893,113.296486 
	C222.625977,111.590790 219.696106,108.877068 217.561722,108.025352 
	C214.377060,106.754555 210.699356,106.703896 207.218506,106.228592 
	C207.006454,106.199638 206.637878,106.976997 206.415512,107.416328 
	C204.353958,111.489326 202.308548,115.570488 199.941376,120.280083 
	C203.561417,120.892746 206.611465,121.408951 210.535812,121.934158 
M222.662369,85.854538 
	C220.879990,86.014603 218.094635,85.522621 217.491989,86.449638 
	C215.111023,90.112061 213.414551,94.219475 211.184341,98.727547 
	C215.166138,99.173111 218.276306,99.846596 221.373825,99.792709 
	C226.218887,99.708443 230.168884,96.604454 230.475250,92.850449 
	C230.881348,87.874390 226.873810,87.170090 222.662369,85.854538 
z"/>
<path fill="#F7F7F7" opacity="1.000000" stroke="none" 
	d="
M253.088593,168.717316 
	C251.379898,166.987259 249.546219,164.925430 247.373138,162.934204 
	C247.033722,163.004791 247.044815,163.079239 247.061066,162.688629 
	C246.318207,160.175354 245.559097,158.052689 244.799988,155.930023 
	C247.314026,154.468979 249.828064,153.007935 252.550049,151.288025 
	C257.062866,150.109695 261.367706,149.190201 266.236267,148.150314 
	C263.632843,156.038071 257.627228,161.801239 253.088593,168.717316 
z"/>
<path fill="#FAFAFA" opacity="1.000000" stroke="none" 
	d="
M228.226898,179.220520 
	C226.562241,177.299255 225.120728,175.098938 223.361023,172.665863 
	C223.042831,172.433121 223.063293,172.261520 223.068176,171.892532 
	C222.059052,169.415192 221.045059,167.306839 220.031067,165.198486 
	C221.731720,164.919449 223.432388,164.640427 225.668930,164.544891 
	C228.623688,164.635590 231.050491,164.635864 233.459702,164.429977 
	C237.993439,164.042526 242.517014,163.536148 247.044815,163.079224 
	C247.044815,163.079239 247.033722,163.004791 247.010269,162.975464 
	C240.807892,168.277908 234.628967,173.609680 228.226898,179.220520 
z"/>
<path fill="#F8F8F8" opacity="1.000000" stroke="none" 
	d="
M223.063293,172.261520 
	C223.063293,172.261520 223.042831,172.433121 223.026642,172.518005 
	C216.888565,175.686829 210.766693,178.770782 204.325714,182.026123 
	C201.384979,177.693420 198.763367,173.189331 196.122559,168.330673 
	C197.121613,168.011566 198.139877,168.047028 199.726074,168.402191 
	C207.883774,169.901794 215.473526,171.081665 223.063293,172.261520 
z"/>
<path fill="#FFFFFF" opacity="1.000000" stroke="none" 
	d="
M287.612610,130.078964 
	C287.145844,130.795212 286.347473,131.279846 285.289795,131.878754 
	C283.466675,129.173462 281.902893,126.353897 280.137573,123.253426 
	C282.308929,118.255379 284.681793,113.538231 287.176636,108.469131 
	C287.652100,108.095024 288.005615,108.072853 288.620361,108.004311 
	C288.348114,115.254402 287.814575,122.550880 287.612610,130.078964 
z"/>
<path fill="#1C1D1C" opacity="1.000000" stroke="none" 
	d="
M247.061066,162.688629 
	C242.517014,163.536148 237.993439,164.042526 233.459702,164.429977 
	C231.050491,164.635864 228.623688,164.635590 225.988678,164.351639 
	C231.881287,161.334213 237.990036,158.693512 244.449402,155.991425 
	C245.559097,158.052689 246.318207,160.175354 247.061066,162.688629 
z"/>
<path fill="#202120" opacity="1.000000" stroke="none" 
	d="
M223.068176,171.892532 
	C215.473526,171.081665 207.883774,169.901794 200.108337,168.378113 
	C206.355591,167.088303 212.788528,166.142288 219.626266,165.197372 
	C221.045059,167.306839 222.059052,169.415192 223.068176,171.892532 
z"/>
<path fill="#F8F8F8" opacity="1.000000" stroke="none" 
	d="
M174.884003,164.851303 
	C174.618988,165.008453 174.286072,164.883453 173.870667,164.433029 
	C174.130814,164.261444 174.473434,164.415298 174.884003,164.851303 
z"/>
<path fill="#0D1013" opacity="1.000000" stroke="none" 
	d="
M62.759590,90.840561 
	C63.025822,91.375244 63.015427,91.784653 62.914886,92.508339 
	C62.710812,92.120171 62.596889,91.417725 62.759590,90.840561 
z"/>
<path fill="#EFCC39" opacity="1.000000" stroke="none" 
	d="
M210.098663,121.929657 
	C206.611465,121.408951 203.561417,120.892746 199.941376,120.280083 
	C202.308548,115.570488 204.353958,111.489326 206.415512,107.416328 
	C206.637878,106.976997 207.006454,106.199638 207.218506,106.228592 
	C210.699356,106.703896 214.377060,106.754555 217.561722,108.025352 
	C219.696106,108.877068 222.625977,111.590790 222.514893,113.296486 
	C222.354446,115.759972 220.215302,118.690331 218.069183,120.250824 
	C216.159637,121.639290 213.092209,121.435303 210.098663,121.929657 
z"/>
<path fill="#EECB38" opacity="1.000000" stroke="none" 
	d="
M223.039246,85.943115 
	C226.873810,87.170090 230.881348,87.874390 230.475250,92.850449 
	C230.168884,96.604454 226.218887,99.708443 221.373825,99.792709 
	C218.276306,99.846596 215.166138,99.173111 211.184341,98.727547 
	C213.414551,94.219475 215.111023,90.112061 217.491989,86.449638 
	C218.094635,85.522621 220.879990,86.014603 223.039246,85.943115 
z"/>
</svg>